<svg width="142" height="50" viewBox="0 0 142 50" fill="none" xmlns="http://www.w3.org/2000/svg">
<path d="M57.0493 26.3098C58.3426 26.3098 59.4348 26.5345 60.327 26.9843C61.2335 27.4338 61.947 28.05 62.4672 28.8331C63.0021 29.6163 63.3742 30.5083 63.5818 31.5089L61.0625 31.6394C60.8838 30.6968 60.4828 29.9353 59.8588 29.3553C59.2343 28.7607 58.2978 28.4633 57.0493 28.4633C55.9495 28.4633 55.0501 28.7318 54.3513 29.2684C53.6525 29.8049 53.1324 30.5229 52.7903 31.4219C52.4636 32.321 52.3002 33.3145 52.3002 34.4021C52.3002 35.5335 52.4636 36.5414 52.7903 37.4259C53.1324 38.3106 53.6525 39.014 54.3513 39.5359C55.0649 40.0435 55.9713 40.2975 57.0712 40.2975C57.9334 40.2975 58.677 40.1162 59.301 39.7537C59.9255 39.3911 60.4085 38.8979 60.7505 38.2744C61.1073 37.6506 61.3002 36.9618 61.3302 36.2078H57.0936V34.2282H63.6266V42.1028H61.9766L61.8671 39.6538C61.6854 40.0434 61.4396 40.403 61.1291 40.7324C60.6243 41.2692 60.0074 41.6895 59.2791 41.9942C58.5655 42.2987 57.7924 42.451 56.9597 42.451C55.4583 42.451 54.1727 42.1101 53.1028 41.4286C52.0325 40.7324 51.2146 39.7825 50.6501 38.5788C50.0852 37.3607 49.8027 35.9684 49.8027 34.4021C49.8027 32.8504 50.0852 31.4654 50.6501 30.2473C51.2294 29.029 52.062 28.0719 53.1471 27.3757C54.2322 26.6652 55.5331 26.3098 57.0493 26.3098ZM67.822 37.3854C67.822 38.4297 68.0077 39.1983 68.3793 39.6914C68.7513 40.1844 69.3163 40.431 70.0741 40.431C70.9363 40.431 71.6051 40.1627 72.081 39.6262C72.5711 39.0751 72.8164 38.3063 72.8164 37.3203V30.5332H75.18V42.1061H72.9727L72.9447 40.2263C72.7054 40.7657 72.3731 41.211 71.9471 41.5621C71.2783 42.0988 70.4161 42.3671 69.3606 42.3671C68.1711 42.3671 67.2204 41.9827 66.5068 41.2141C65.808 40.431 65.4589 39.3507 65.4589 37.9729V30.5332H67.822V37.3854ZM82.1655 30.2703C83.7708 30.2703 84.9897 30.6909 85.8224 31.5321C86.6693 32.3587 87.0928 33.5261 87.0928 35.0343V39.5373C87.0928 39.8128 87.1375 40.0086 87.2266 40.1246C87.3309 40.2261 87.4943 40.2769 87.7172 40.2769H88.1407V42.1042C88.0669 42.1188 87.9478 42.1333 87.7844 42.1477C87.6205 42.1623 87.45 42.1695 87.2714 42.1695C86.766 42.1695 86.3273 42.0898 85.9557 41.9302C85.5989 41.7708 85.3312 41.5096 85.1531 41.1471C85.0447 40.9178 84.9694 40.643 84.9266 40.3227C84.7872 40.6046 84.5953 40.8649 84.3505 41.1036C83.9637 41.4952 83.4659 41.807 82.8567 42.0391C82.2622 42.2565 81.6153 42.3654 80.917 42.3654C79.6833 42.3654 78.6949 42.0898 77.9513 41.5388C77.223 40.9877 76.8586 40.2118 76.8586 39.2109C76.8586 38.2103 77.1634 37.4345 77.7727 36.8834C78.3972 36.3177 79.356 35.9117 80.6493 35.6653L84.7296 34.9038C84.7296 34.0047 84.5138 33.3375 84.0828 32.9025C83.6517 32.4528 83.0124 32.228 82.1655 32.228C81.4077 32.228 80.8127 32.395 80.3816 32.7284C79.9505 33.0476 79.6533 33.5261 79.4899 34.1642L77.0596 34.012C77.2825 32.8518 77.8327 31.9381 78.7097 31.2709C79.6014 30.6039 80.7531 30.2703 82.1655 30.2703ZM117.535 30.2703C119.14 30.2703 120.359 30.6909 121.192 31.5321C122.039 32.3587 122.462 33.5261 122.462 35.0343V39.5373C122.462 39.8128 122.507 40.0086 122.596 40.1246C122.7 40.2261 122.864 40.2769 123.087 40.2769H123.51V42.1042C123.436 42.1188 123.317 42.1333 123.154 42.1477C122.99 42.1623 122.819 42.1695 122.641 42.1695C122.135 42.1695 121.697 42.0898 121.325 41.9302C120.969 41.7708 120.701 41.5096 120.523 41.1471C120.414 40.9179 120.339 40.6432 120.296 40.3229C120.156 40.6047 119.964 40.865 119.72 41.1036C119.333 41.4952 118.836 41.807 118.226 42.0391C117.631 42.2565 116.985 42.3654 116.286 42.3654C115.053 42.3654 114.064 42.0898 113.321 41.5388C112.592 40.9877 112.228 40.2118 112.228 39.2109C112.228 38.2103 112.533 37.4345 113.142 36.8834C113.767 36.3177 114.725 35.9117 116.019 35.6653L120.099 34.9038C120.099 34.0047 119.884 33.3375 119.452 32.9025C119.021 32.4528 118.382 32.228 117.535 32.228C116.777 32.228 116.182 32.395 115.751 32.7284C115.32 33.0476 115.022 33.5261 114.859 34.1642L112.429 34.012C112.652 32.8518 113.202 31.9381 114.079 31.2709C114.971 30.6039 116.123 30.2703 117.535 30.2703ZM106.374 42.0996H104.166L104.099 40.3593C103.772 40.9831 103.274 41.4761 102.605 41.8386C101.951 42.1866 101.208 42.3608 100.376 42.3608C99.3653 42.3608 98.4807 42.1142 97.7224 41.6211C96.9793 41.1279 96.4072 40.4319 96.0057 39.5327C95.6189 38.619 95.426 37.5458 95.426 36.3131C95.426 35.0805 95.6265 34.0145 96.0281 33.1154C96.4291 32.2018 97.0017 31.4983 97.7448 31.0053C98.4879 30.5123 99.3653 30.2657 100.376 30.2657C101.194 30.2657 101.922 30.4324 102.561 30.766C103.2 31.0996 103.683 31.5637 104.01 32.1583V26.6547H106.374V42.0996ZM110.769 42.1063H108.406V30.5334H110.769V42.1063ZM91.4352 32.7266C91.6184 32.0878 91.8872 31.596 92.2409 31.251C92.7463 30.7723 93.4222 30.5332 94.2696 30.5332H95.4071V32.5998H94.2696C93.6751 32.5998 93.1774 32.6941 92.7758 32.8824C92.3747 33.071 92.0699 33.3611 91.8617 33.7527C91.6688 34.1442 91.5721 34.6518 91.5721 35.2753V42.1061H89.2085V30.5332H91.3711L91.4352 32.7266ZM130.396 30.2703C131.288 30.2703 132.024 30.4661 132.604 30.8576C133.198 31.2347 133.644 31.7569 133.941 32.4239C134.253 33.0765 134.409 33.8235 134.409 34.6644V42.1042H132.046V35.3606C132.046 34.679 131.972 34.1061 131.823 33.6422C131.674 33.1781 131.429 32.8226 131.087 32.5762C130.745 32.3296 130.299 32.2064 129.749 32.2064C128.917 32.2064 128.241 32.4747 127.721 33.0112C127.2 33.5479 126.94 34.3311 126.94 35.3606V42.1042H124.577V30.5312H126.739L126.797 32.5246C126.929 32.1872 127.095 31.8926 127.297 31.6407C127.668 31.1766 128.122 30.836 128.657 30.6183C129.192 30.3862 129.772 30.2703 130.396 30.2703ZM81.2509 37.2967C80.5378 37.4272 80.0324 37.6376 79.7352 37.9275C79.4527 38.203 79.3118 38.5585 79.3118 38.9935C79.3118 39.4865 79.4823 39.8709 79.8243 40.1464C80.1811 40.4074 80.6717 40.5379 81.2957 40.5379C82.0093 40.5379 82.619 40.4074 83.1244 40.1464C83.6293 39.8709 84.0237 39.4938 84.3062 39.0153C84.5887 38.5367 84.7296 37.9928 84.7296 37.3837V36.644L81.2509 37.2967ZM116.621 37.2967C115.907 37.4272 115.402 37.6376 115.104 37.9275C114.822 38.203 114.681 38.5585 114.681 38.9935C114.681 39.4865 114.852 39.8709 115.193 40.1464C115.55 40.4074 116.041 40.5379 116.665 40.5379C117.379 40.5379 117.988 40.4074 118.494 40.1464C118.999 39.8709 119.393 39.4938 119.675 39.0153C119.958 38.5367 120.099 37.9928 120.099 37.3837V36.644L116.621 37.2967ZM101 32.2669C100.049 32.2669 99.2905 32.6295 98.7256 33.3548C98.1611 34.0653 97.8786 35.0515 97.8786 36.3131C97.8786 37.5604 98.1611 38.5466 98.7256 39.2717C99.2905 39.9968 100.049 40.3593 101 40.3593C101.639 40.3593 102.182 40.1999 102.628 39.8809C103.074 39.5616 103.416 39.0977 103.653 38.4886C103.891 37.8794 104.01 37.1543 104.01 36.3131C104.01 35.443 103.891 34.7106 103.653 34.1161C103.416 33.5069 103.074 33.0501 102.628 32.7456C102.182 32.4266 101.639 32.2669 101 32.2669ZM110.814 28.8583H108.361V26.5523H110.814V28.8583ZM57.2946 7.55078C59.3605 7.55078 60.9658 8.05108 62.1104 9.05173C63.2698 10.038 64.0129 11.4519 64.3402 13.2937L60.8172 13.4242C60.639 12.4525 60.2522 11.6985 59.6577 11.1618C59.0633 10.6107 58.2754 10.3352 57.2946 10.3352C56.4472 10.3352 55.726 10.5528 55.1315 10.9878C54.5371 11.423 54.0836 12.0392 53.7716 12.8369C53.4591 13.6346 53.3034 14.5699 53.3034 15.6432C53.3034 16.7308 53.4591 17.6735 53.7716 18.471C54.0984 19.2542 54.5595 19.856 55.1539 20.2767C55.7484 20.6973 56.4543 20.9075 57.2717 20.9075C58.3426 20.9075 59.1671 20.6173 59.7468 20.0373C60.3418 19.4427 60.7133 18.6233 60.8619 17.5792L64.4068 17.7098C64.1987 18.9713 63.79 20.0446 63.1808 20.9293C62.571 21.8138 61.7684 22.4956 60.7729 22.9741C59.7916 23.4527 58.6098 23.692 57.2275 23.692C55.7856 23.692 54.4999 23.3728 53.37 22.7347C52.2554 22.0966 51.3785 21.1757 50.7391 19.9722C50.1149 18.7685 49.8027 17.3254 49.8027 15.6432C49.8027 14.0042 50.1074 12.583 50.7169 11.3795C51.3261 10.1612 52.1959 9.21863 53.3252 8.55143C54.4551 7.88443 55.7784 7.55078 57.2946 7.55078ZM89.239 13.3408C89.5515 12.8043 90.0121 12.3546 90.6214 11.992C91.2311 11.6149 91.9447 11.4264 92.7621 11.4264C93.7729 11.4264 94.6498 11.6803 95.3934 12.1879C96.1365 12.6809 96.7085 13.3843 97.1101 14.2979C97.5259 15.2116 97.7341 16.2849 97.7341 17.5175C97.7341 18.7502 97.5259 19.8234 97.1101 20.7371C96.7085 21.6507 96.1365 22.3612 95.3934 22.8688C94.6498 23.362 93.7729 23.6084 92.7621 23.6084C91.9299 23.6084 91.2016 23.4345 90.5771 23.0865C89.9679 22.7383 89.492 22.2526 89.15 21.6289L89.0833 23.3475H85.8947V7.90233H89.239V13.3408ZM70.693 11.4199C72.4764 11.4199 73.8145 11.8332 74.7062 12.6599C75.6131 13.4865 76.0666 14.6976 76.0666 16.2928V20.2736C76.0666 20.6072 76.1185 20.832 76.2224 20.9481C76.3415 21.0494 76.5125 21.1002 76.7354 21.1002H77.0698V23.3408C76.9655 23.37 76.795 23.3989 76.5568 23.428C76.3338 23.4569 76.1109 23.4715 75.888 23.4715C75.4126 23.4715 74.9663 23.3916 74.5504 23.2322C74.1489 23.0725 73.8216 22.8043 73.5692 22.4272C73.42 22.1963 73.3152 21.9099 73.2541 21.5681C73.1065 21.8572 72.9141 22.1219 72.6775 22.3621C72.3054 22.7535 71.8153 23.0582 71.2055 23.2757C70.6111 23.4932 69.9199 23.602 69.132 23.602C67.8983 23.602 66.8875 23.3265 66.0997 22.7754C65.327 22.2097 64.9402 21.4265 64.9402 20.4259C64.9402 19.3962 65.2675 18.606 65.9215 18.0549C66.5903 17.4892 67.5716 17.0759 68.8643 16.8149L72.7217 16.0753C72.7217 15.3211 72.5436 14.7554 72.1868 14.3785C71.8448 13.9868 71.347 13.791 70.693 13.791C70.0538 13.791 69.556 13.936 69.1992 14.2262C68.8424 14.5017 68.6119 14.915 68.5081 15.4661L65.1413 15.3138C65.3642 14.0376 65.951 13.0732 66.9023 12.4206C67.8688 11.7535 69.132 11.4199 70.693 11.4199ZM104.296 11.4199C105.515 11.4199 106.578 11.6738 107.484 12.1812C108.391 12.6888 109.097 13.3995 109.603 14.3131C110.108 15.2122 110.36 16.2782 110.36 17.5108C110.36 18.7437 110.108 19.8168 109.603 20.7304C109.097 21.644 108.391 22.3548 107.484 22.8623C106.578 23.3554 105.515 23.602 104.296 23.602C103.077 23.602 102.014 23.3554 101.107 22.8623C100.201 22.3548 99.4946 21.644 98.9892 20.7304C98.4838 19.8168 98.2314 18.7437 98.2314 17.5108C98.2314 16.2782 98.4838 15.2122 98.9892 14.3131C99.4946 13.3995 100.201 12.6888 101.107 12.1812C102.014 11.6738 103.077 11.4199 104.296 11.4199ZM81.1399 14.0527C81.3379 13.363 81.6092 12.8345 81.9543 12.4675C82.4449 11.9454 83.1208 11.6844 83.9835 11.6844H85.0757V14.3818H83.9835C83.359 14.3818 82.846 14.4615 82.4449 14.6211C82.0434 14.7805 81.7385 15.0344 81.5308 15.3824C81.3374 15.7306 81.2407 16.2017 81.2407 16.7963V23.3443H77.8963V11.6844H81.0626L81.1399 14.0527ZM118.137 11.4199C118.999 11.4199 119.727 11.6012 120.322 11.9637C120.932 12.3263 121.392 12.8412 121.705 13.5084C122.031 14.1608 122.195 14.9367 122.195 15.8359V23.3408H118.85V16.9235C118.85 16.3 118.798 15.7706 118.695 15.3356C118.59 14.9005 118.405 14.5741 118.137 14.3566C117.87 14.1246 117.498 14.0087 117.022 14.0087C116.324 14.0087 115.788 14.2624 115.417 14.77C115.045 15.263 114.86 15.981 114.86 16.9235V23.3408H111.515V11.6809H114.525L114.599 13.5572C114.699 13.3136 114.815 13.0942 114.949 12.8992C115.32 12.377 115.781 11.9999 116.331 11.7681C116.881 11.5361 117.483 11.4199 118.137 11.4199ZM70.0019 18.6857C69.4664 18.7872 69.0577 18.9612 68.7753 19.2076C68.5081 19.4397 68.3742 19.7444 68.3742 20.1215C68.3742 20.5129 68.5081 20.8174 68.7753 21.0351C69.043 21.2526 69.4293 21.3614 69.9352 21.3614C70.4849 21.3614 70.9679 21.2599 71.3842 21.0567C71.8005 20.8393 72.1273 20.5275 72.3655 20.1215C72.6032 19.7152 72.7217 19.2368 72.7217 18.6857V18.12L70.0019 18.6857ZM91.848 13.9281C91.2983 13.9281 90.8224 14.0732 90.4208 14.3633C90.0345 14.6389 89.7373 15.0449 89.5291 15.5814C89.3357 16.1179 89.239 16.7633 89.239 17.5175C89.239 18.2572 89.3357 18.8953 89.5291 19.4318C89.7373 19.9685 90.0345 20.3818 90.4208 20.6717C90.8224 20.9618 91.2907 21.1069 91.8256 21.1069C92.5687 21.1069 93.1636 20.7951 93.6095 20.1714C94.0701 19.5333 94.3007 18.6486 94.3007 17.5175C94.3007 16.3864 94.0777 15.509 93.6319 14.8852C93.1855 14.2472 92.5911 13.9281 91.848 13.9281ZM104.296 13.9217C103.463 13.9217 102.817 14.2407 102.356 14.8788C101.895 15.5023 101.665 16.3797 101.665 17.5108C101.665 18.6422 101.895 19.5267 102.356 20.165C102.817 20.7885 103.463 21.1002 104.296 21.1002C105.128 21.1002 105.775 20.7885 106.236 20.165C106.696 19.5267 106.927 18.6422 106.927 17.5108C106.927 16.3797 106.696 15.5023 106.236 14.8788C105.775 14.2407 105.128 13.9217 104.296 13.9217Z" fill="white"/>
<path d="M19.6087 39.3435C16.1191 39.3408 11.9102 37.9019 10.17 35.1768C9.88799 34.7363 9.48764 33.9742 9.15015 33.1884C8.3605 31.3563 8.09141 29.8366 7.94254 28.901C7.75484 27.721 7.66053 26.4784 7.66053 25.1794V24.8016C7.6587 24.5427 7.66241 24.0776 7.70033 23.5017C7.78909 22.1991 8.30222 16.7235 12.4492 12.4497C12.9846 11.8965 13.4636 11.4087 14.244 10.9055C16.8542 9.2205 19.6734 9.40035 20.391 9.4558C24.8338 9.79915 27.4727 13.0356 27.9203 13.6024H25.2832C25.1732 13.5997 25.0632 13.5979 24.9503 13.5979C22.1283 13.5979 19.8334 14.6979 18.2689 16.7181C16.9236 18.4558 16.1191 20.8738 15.985 23.8587C15.9721 24.1512 15.9656 24.45 15.9656 24.7543V25.1322C15.9656 29.7103 17.3794 33.0331 19.9629 34.7826C20.0886 34.8689 20.2181 34.9507 20.3503 35.0288C21.6429 35.7936 23.2009 36.1933 24.9993 36.1933H25.0049V36.2024H28.1514C27.1722 37.0081 24.0664 39.3471 19.6087 39.3435Z" fill="white"/>
<path d="M43.7058 29.8486H40.6702C40.3419 33.423 38.9633 35.6566 38.1607 36.7394C33.9416 42.4302 25.7142 43.1678 20.2625 41.9479C17.4451 41.3175 15.337 40.1567 14.0859 39.3528C15.2676 39.8387 19.0364 41.2131 23.5486 39.9432C24.7091 39.6171 28.9948 38.3408 31.4395 34.196C32.4316 32.5155 32.7959 30.9132 32.9448 29.8495H29.9277L29.924 29.8486L30.1099 29.6951C30.1099 29.6951 30.1099 29.6969 30.1099 29.6978H30.1117L36.267 24.6337C36.5842 24.3721 37.0465 24.3721 37.3637 24.6337L43.7048 29.8486H43.7058Z" fill="white"/>
<path d="M25.9637 10.2551C23.2647 8.6191 20.672 8.36385 19.457 8.32025C20.6951 7.96235 22.5851 7.5445 24.9022 7.55085C26.8625 7.5563 33.1259 7.59175 37.1906 12.2117C38.8855 14.1383 39.9794 16.6735 40.291 19.8374H32.229C32.0857 18.77 31.7335 17.1195 30.769 15.3274C29.1334 12.2862 26.7524 10.732 25.9637 10.2551Z" fill="white"/>
</svg>
