<svg width="85" height="35" viewBox="0 0 85 35" fill="none" xmlns="http://www.w3.org/2000/svg">
<path d="M7.28028 18.8126C8.57956 18.8126 9.67687 19.038 10.5732 19.489C11.4839 19.9398 12.2008 20.5578 12.7234 21.3432C13.2608 22.1286 13.6345 23.0232 13.8432 24.0266L11.3121 24.1574C11.1326 23.2122 10.7297 22.4485 10.1028 21.8669C9.47541 21.2706 8.53457 20.9723 7.28028 20.9723C6.1753 20.9723 5.27179 21.2416 4.56973 21.7797C3.86768 22.3177 3.3451 23.0378 3.00149 23.9394C2.67322 24.841 2.50908 25.8374 2.50908 26.9281C2.50908 28.0627 2.67322 29.0735 3.00149 29.9605C3.3451 30.8477 3.86768 31.5531 4.56973 32.0766C5.28661 32.5856 6.19729 32.8403 7.30227 32.8403C8.16846 32.8403 8.9155 32.6585 9.54239 32.2949C10.1698 31.9314 10.655 31.4367 10.9987 30.8114C11.3571 30.1859 11.5509 29.4951 11.5811 28.7389H7.32476V26.7536H13.8882V34.6508H12.2304L12.1205 32.1948C11.938 32.5855 11.691 32.9461 11.3791 33.2765C10.8718 33.8148 10.2521 34.2363 9.5204 34.5419C8.80352 34.8473 8.02682 35 7.19029 35C5.68187 35 4.39026 34.6581 3.31545 33.9746C2.24012 33.2765 1.41842 32.3239 0.851258 31.1167C0.283736 29.8951 0 28.4989 0 26.9281C0 25.372 0.283736 23.983 0.851258 22.7614C1.43325 21.5396 2.26978 20.5798 3.35993 19.8816C4.45008 19.1691 5.75704 18.8126 7.28028 18.8126ZM18.103 29.9199C18.103 30.9672 18.2897 31.738 18.6629 32.2325C19.0367 32.7269 19.6043 32.9742 20.3657 32.9742C21.2318 32.9742 21.9037 32.7052 22.3818 32.1671C22.8742 31.6144 23.1207 30.8435 23.1207 29.8546V23.0481H25.4953V34.6541H23.2777L23.2495 32.7689C23.0092 33.3099 22.6753 33.7564 22.2473 34.1086C21.5755 34.6468 20.7093 34.9158 19.6488 34.9158C18.4538 34.9158 17.4986 34.5303 16.7818 33.7596C16.0797 32.9742 15.7289 31.8908 15.7289 30.5091V23.0481H18.103V29.9199ZM32.5133 22.7845C34.126 22.7845 35.3506 23.2062 36.1871 24.0498C37.038 24.8789 37.4634 26.0495 37.4634 27.5621V32.0779C37.4634 32.3543 37.5084 32.5506 37.5979 32.6669C37.7027 32.7687 37.8669 32.8196 38.0908 32.8196H38.5162V34.6522C38.4421 34.6668 38.3225 34.6814 38.1583 34.6958C37.9937 34.7104 37.8224 34.7177 37.6429 34.7177C37.1352 34.7177 36.6944 34.6378 36.3211 34.4777C35.9627 34.3179 35.6937 34.0559 35.5148 33.6923C35.4058 33.4624 35.3302 33.1868 35.2872 32.8656C35.1471 33.1483 34.9543 33.4094 34.7084 33.6487C34.3198 34.0415 33.8197 34.3542 33.2076 34.5869C32.6104 34.8049 31.9605 34.9141 31.259 34.9141C30.0195 34.9141 29.0265 34.6378 28.2795 34.0851C27.5478 33.5325 27.1817 32.7543 27.1817 31.7506C27.1817 30.7472 27.4879 29.9691 28.1 29.4164C28.7274 28.8492 29.6907 28.442 30.99 28.1949L35.0893 27.4312C35.0893 26.5296 34.8725 25.8604 34.4394 25.4242C34.0063 24.9732 33.3641 24.7478 32.5133 24.7478C31.7519 24.7478 31.1542 24.9152 30.7211 25.2496C30.288 25.5697 29.9894 26.0495 29.8252 26.6895L27.3836 26.5369C27.6076 25.3733 28.1603 24.4571 29.0413 23.7879C29.9372 23.119 31.0943 22.7845 32.5133 22.7845ZM68.0469 22.7845C69.6602 22.7845 70.8843 23.2062 71.7208 24.0498C72.5722 24.8789 72.9976 26.0495 72.9976 27.5621V32.0779C72.9976 32.3543 73.0426 32.5506 73.1321 32.6669C73.2364 32.7687 73.4005 32.8196 73.625 32.8196H74.0504V34.6522C73.9758 34.6668 73.8561 34.6814 73.692 34.6958C73.5279 34.7104 73.3561 34.7177 73.1771 34.7177C72.6688 34.7177 72.2286 34.6378 71.8553 34.4777C71.4969 34.3179 71.2279 34.0559 71.0489 33.6923C70.9395 33.4625 70.8638 33.187 70.8214 32.8658C70.6808 33.1484 70.488 33.4094 70.2421 33.6487C69.854 34.0415 69.3539 34.3542 68.7413 34.5869C68.1441 34.8049 67.4947 34.9141 66.7927 34.9141C65.5532 34.9141 64.5602 34.6378 63.8137 34.0851C63.0814 33.5325 62.7158 32.7543 62.7158 31.7506C62.7158 30.7472 63.0221 29.9691 63.6342 29.4164C64.2616 28.8492 65.2244 28.442 66.5237 28.1949L70.623 27.4312C70.623 26.5296 70.4067 25.8604 69.9736 25.4242C69.5405 24.9732 68.8983 24.7478 68.0469 24.7478C67.2856 24.7478 66.6883 24.9152 66.2552 25.2496C65.8222 25.5697 65.523 26.0495 65.3589 26.6895L62.9173 26.5369C63.1418 25.3733 63.694 24.4571 64.575 23.7879C65.4709 23.119 66.6285 22.7845 68.0469 22.7845ZM56.834 34.6476H54.6164L54.5489 32.9023C54.2206 33.5279 53.7201 34.0223 53.0482 34.3859C52.3911 34.7348 51.6446 34.9095 50.808 34.9095C49.7931 34.9095 48.9044 34.6622 48.1425 34.1677C47.396 33.6731 46.8212 32.9751 46.4178 32.0733C46.0292 31.157 45.8354 30.0807 45.8354 28.8446C45.8354 27.6084 46.0368 26.5393 46.4403 25.6377C46.8432 24.7215 47.4185 24.016 48.165 23.5216C48.9115 23.0271 49.7931 22.7798 50.808 22.7798C51.6298 22.7798 52.3615 22.947 53.0037 23.2816C53.6454 23.6162 54.1312 24.0816 54.4594 24.6778V19.1585H56.834V34.6476ZM61.2499 34.6543H58.8758V23.0483H61.2499V34.6543ZM41.8261 25.2478C42.0101 24.6072 42.2801 24.1139 42.6355 23.7679C43.1432 23.2879 43.8223 23.0481 44.6737 23.0481H45.8165V25.1206H44.6737C44.0764 25.1206 43.5763 25.2152 43.1729 25.4041C42.77 25.5931 42.4637 25.8841 42.2546 26.2768C42.0608 26.6694 41.9636 27.1785 41.9636 27.8037V34.6541H39.589V23.0481H41.7616L41.8261 25.2478ZM80.9682 22.7845C81.864 22.7845 82.6034 22.9808 83.1858 23.3734C83.783 23.7516 84.231 24.2753 84.5296 24.9442C84.843 25.5987 85 26.3478 85 27.1911V34.6522H82.6254V27.8893C82.6254 27.2058 82.5513 26.6312 82.4014 26.166C82.2521 25.7005 82.0057 25.3441 81.6626 25.097C81.319 24.8496 80.871 24.7261 80.3183 24.7261C79.4823 24.7261 78.8027 24.9951 78.2801 25.5332C77.757 26.0715 77.4963 26.8568 77.4963 27.8893V34.6522H75.1217V23.0461H77.2943L77.3521 25.0452C77.4845 24.7069 77.6517 24.4114 77.8542 24.1588C78.2275 23.6934 78.6831 23.3518 79.221 23.1334C79.7584 22.9007 80.3408 22.7845 80.9682 22.7845ZM31.5944 29.831C30.878 29.9618 30.3703 30.1728 30.0717 30.4635C29.7879 30.7399 29.6463 31.0964 29.6463 31.5326C29.6463 32.027 29.8175 32.4125 30.1612 32.6888C30.5196 32.9505 31.0125 33.0814 31.6394 33.0814C32.3563 33.0814 32.9689 32.9505 33.4766 32.6888C33.9838 32.4125 34.3801 32.0343 34.6639 31.5545C34.9477 31.0745 35.0893 30.5291 35.0893 29.9182V29.1764L31.5944 29.831ZM67.1286 29.831C66.4117 29.9618 65.904 30.1728 65.6054 30.4635C65.3216 30.7399 65.1799 31.0964 65.1799 31.5326C65.1799 32.027 65.3517 32.4125 65.6948 32.6888C66.0533 32.9505 66.5462 33.0814 67.1736 33.0814C67.8905 33.0814 68.5025 32.9506 69.0103 32.6888C69.518 32.4125 69.9138 32.0343 70.1976 31.5545C70.4814 31.0745 70.623 30.5291 70.623 29.9182V29.1764L67.1286 29.831ZM51.4354 24.7868C50.4798 24.7868 49.7179 25.1504 49.1503 25.8778C48.5833 26.5903 48.2995 27.5794 48.2995 28.8446C48.2995 30.0954 48.5833 31.0844 49.1503 31.8116C49.7179 32.5387 50.4798 32.9023 51.4354 32.9023C52.0777 32.9023 52.6227 32.7424 53.0707 32.4225C53.5186 32.1023 53.8622 31.6371 54.101 31.0262C54.3398 30.4153 54.4594 29.6882 54.4594 28.8446C54.4594 27.972 54.3398 27.2375 54.101 26.6412C53.8622 26.0303 53.5186 25.5722 53.0707 25.2668C52.6227 24.9469 52.0777 24.7868 51.4354 24.7868ZM61.2949 21.3684H58.8308V19.0559H61.2949V21.3684ZM7.52674 0C9.60221 0 11.2149 0.50173 12.3649 1.50524C13.5297 2.49431 14.2763 3.9123 14.605 5.75936L11.0656 5.89024C10.8867 4.91576 10.4981 4.1596 9.90083 3.62137C9.3036 3.0687 8.51206 2.79236 7.52674 2.79236C6.67538 2.79236 5.95083 3.01063 5.3536 3.44682C4.75636 3.88327 4.30077 4.50123 3.98733 5.30126C3.67337 6.10124 3.51691 7.03921 3.51691 8.11553C3.51691 9.20624 3.67337 10.1517 3.98733 10.9515C4.3156 11.7368 4.77887 12.3404 5.3761 12.7623C5.97333 13.1841 6.68254 13.3949 7.50373 13.3949C8.57956 13.3949 9.40791 13.1039 9.99031 12.5222C10.5881 11.9259 10.9613 11.1042 11.1106 10.0571L14.672 10.188C14.4629 11.4532 14.0523 12.5295 13.4402 13.4167C12.8277 14.3038 12.0213 14.9876 11.0212 15.4674C10.0353 15.9474 8.84801 16.1874 7.45924 16.1874C6.01065 16.1874 4.71904 15.8672 3.58389 15.2273C2.46408 14.5874 1.58307 13.6639 0.940741 12.457C0.313598 11.2498 0 9.80254 0 8.11553C0 6.47189 0.306132 5.04663 0.918395 3.83964C1.5304 2.61786 2.40426 1.67262 3.53889 1.00351C4.67404 0.334604 6.00349 0 7.52674 0ZM39.6197 5.8066C39.9336 5.26851 40.3964 4.81753 41.0085 4.45394C41.621 4.07577 42.3379 3.88668 43.1591 3.88668C44.1746 3.88668 45.0556 4.1413 45.8027 4.65035C46.5492 5.14481 47.1239 5.85022 47.5274 6.76643C47.9451 7.6827 48.1543 8.75906 48.1543 9.99524C48.1543 11.2314 47.9451 12.3077 47.5274 13.224C47.1239 14.1402 46.5492 14.8527 45.8027 15.3618C45.0556 15.8564 44.1746 16.1035 43.1591 16.1035C42.3231 16.1035 41.5914 15.9291 40.964 15.5802C40.3519 15.231 39.8738 14.7438 39.5302 14.1183L39.4632 15.8418H36.2598V0.352555H39.6197V5.8066ZM20.9874 3.88021C22.7791 3.88021 24.1234 4.29469 25.0193 5.1237C25.9304 5.95267 26.386 7.16723 26.386 8.76699V12.7592C26.386 13.0937 26.4382 13.3192 26.5425 13.4356C26.6621 13.5372 26.834 13.5882 27.0579 13.5882H27.3939V15.8352C27.289 15.8644 27.1177 15.8934 26.8784 15.9226C26.6545 15.9516 26.4305 15.9663 26.2066 15.9663C25.729 15.9663 25.2805 15.8861 24.8628 15.7262C24.4593 15.5661 24.1306 15.2971 23.8769 14.9189C23.7271 14.6874 23.6218 14.4002 23.5604 14.0574C23.4121 14.3473 23.2189 14.6127 22.9811 14.8536C22.6073 15.2462 22.1149 15.5518 21.5023 15.7698C20.9051 15.988 20.2107 16.0971 19.4192 16.0971C18.1797 16.0971 17.1642 15.8208 16.3727 15.2681C15.5965 14.7008 15.2079 13.9154 15.2079 12.9119C15.2079 11.8793 15.5367 11.0868 16.1937 10.5341C16.8656 9.96686 17.8515 9.55237 19.1502 9.29063L23.0256 8.54886C23.0256 7.79251 22.8466 7.22519 22.4882 6.84726C22.1446 6.45444 21.6445 6.25803 20.9874 6.25803C20.3452 6.25803 19.8451 6.4035 19.4867 6.69448C19.1282 6.97082 18.8966 7.3853 18.7923 7.93797L15.4099 7.78519C15.6338 6.50539 16.2234 5.53823 17.1791 4.88372C18.1501 4.21476 19.4192 3.88021 20.9874 3.88021ZM54.7468 3.88021C55.9709 3.88021 57.0391 4.13483 57.9498 4.64363C58.8609 5.15269 59.5701 5.86547 60.0779 6.78168C60.5856 7.6833 60.8393 8.75234 60.8393 9.98852C60.8393 11.2249 60.5856 12.3011 60.0779 13.2173C59.5701 14.1335 58.8609 14.8463 57.9498 15.3553C57.0391 15.8498 55.9709 16.0971 54.7468 16.0971C53.5222 16.0971 52.454 15.8498 51.5433 15.3553C50.6322 14.8463 49.9229 14.1335 49.4152 13.2173C48.9074 12.3011 48.6538 11.2249 48.6538 9.98852C48.6538 8.75234 48.9074 7.6833 49.4152 6.78168C49.9229 5.86547 50.6322 5.15269 51.5433 4.64363C52.454 4.13483 53.5222 3.88021 54.7468 3.88021ZM31.4829 6.52053C31.6818 5.82881 31.9544 5.29885 32.3011 4.9308C32.794 4.40716 33.473 4.14541 34.3397 4.14541H35.437V6.85052H34.3397C33.7123 6.85052 33.1969 6.93045 32.794 7.09051C32.3905 7.25036 32.0843 7.50504 31.8756 7.85398C31.6813 8.20318 31.5842 8.67568 31.5842 9.27198V15.8386H28.2242V4.14541H31.4052L31.4829 6.52053ZM68.6523 3.88021C69.518 3.88021 70.2497 4.06198 70.8475 4.42556C71.4595 4.78915 71.9223 5.30552 72.2362 5.97463C72.5645 6.62894 72.7292 7.40701 72.7292 8.30883V15.8352H69.3687V9.39954C69.3687 8.77426 69.3166 8.24329 69.2123 7.8071C69.1074 7.37071 68.9208 7.04342 68.6523 6.8253C68.3834 6.59259 68.0096 6.47636 67.532 6.47636C66.8305 6.47636 66.2926 6.73078 65.9193 7.23983C65.546 7.73424 65.3594 8.45429 65.3594 9.39954V15.8352H61.9995V4.14195H65.0235L65.0971 6.02362C65.1978 5.77927 65.3149 5.55929 65.4489 5.36374C65.8222 4.84004 66.2849 4.46187 66.8376 4.2294C67.3899 3.99669 67.9948 3.88021 68.6523 3.88021ZM20.293 11.1667C19.7551 11.2686 19.3445 11.4431 19.0608 11.6902C18.7923 11.9229 18.6578 12.2285 18.6578 12.6066C18.6578 12.9992 18.7923 13.3046 19.0608 13.5229C19.3297 13.741 19.7178 13.8501 20.2261 13.8501C20.7783 13.8501 21.2636 13.7483 21.6818 13.5446C22.1001 13.3265 22.4284 13.0138 22.6677 12.6066C22.9064 12.1992 23.0256 11.7194 23.0256 11.1667V10.5995L20.293 11.1667ZM42.2408 6.39558C41.6885 6.39558 41.2104 6.54109 40.807 6.83202C40.4189 7.10836 40.1203 7.51552 39.9111 8.05355C39.7168 8.59164 39.6197 9.23888 39.6197 9.99524C39.6197 10.737 39.7168 11.3769 39.9111 11.915C40.1203 12.4532 40.4189 12.8677 40.807 13.1585C41.2104 13.4494 41.6809 13.5948 42.2183 13.5948C42.9648 13.5948 43.5625 13.2822 44.0105 12.6567C44.4732 12.0168 44.7048 11.1296 44.7048 9.99524C44.7048 8.8609 44.4809 7.98095 44.033 7.35541C43.5845 6.71554 42.9873 6.39558 42.2408 6.39558ZM54.7468 6.38911C53.9103 6.38911 53.2609 6.70907 52.7976 7.34899C52.3349 7.97428 52.1032 8.85418 52.1032 9.98852C52.1032 11.1231 52.3349 12.0101 52.7976 12.6503C53.2609 13.2755 53.9103 13.5882 54.7468 13.5882C55.5828 13.5882 56.2322 13.2755 56.6955 12.6503C57.1582 12.0101 57.3899 11.1231 57.3899 9.98852C57.3899 8.85418 57.1582 7.97428 56.6955 7.34899C56.2322 6.70907 55.5828 6.38911 54.7468 6.38911Z" fill="white"/>
</svg>
