<svg width="128" height="37" viewBox="0 0 128 37" fill="none" xmlns="http://www.w3.org/2000/svg">
<path d="M50.068 19.9556C51.3374 19.9556 52.4095 20.1827 53.2852 20.6372C54.175 21.0914 54.8754 21.7141 55.3859 22.5054C55.911 23.2968 56.2762 24.1982 56.48 25.2093L54.0071 25.3411C53.8318 24.3887 53.4381 23.6192 52.8256 23.0331C52.2126 22.4323 51.2934 22.1317 50.068 22.1317C48.9884 22.1317 48.1057 22.4031 47.4198 22.9452C46.7338 23.4874 46.2233 24.2129 45.8876 25.1214C45.5668 26.0298 45.4065 27.0338 45.4065 28.1328C45.4065 29.276 45.5668 30.2945 45.8876 31.1882C46.2233 32.0822 46.7338 32.793 47.4198 33.3204C48.1202 33.8333 49.0099 34.0899 50.0895 34.0899C50.9357 34.0899 51.6656 33.9067 52.2781 33.5404C52.8911 33.1741 53.3652 32.6757 53.7009 32.0456C54.0511 31.4153 54.2404 30.7193 54.2699 29.9574H50.1114V27.957H56.524V35.9142H54.9043L54.7969 33.4395C54.6186 33.8332 54.3773 34.1965 54.0726 34.5294C53.577 35.0718 52.9715 35.4966 52.2566 35.8045C51.5562 36.1122 50.7974 36.2661 49.9801 36.2661C48.5063 36.2661 47.2444 35.9216 46.1943 35.2329C45.1437 34.5294 44.3409 33.5696 43.7868 32.3533C43.2323 31.1224 42.9551 29.7155 42.9551 28.1328C42.9551 26.5648 43.2323 25.1653 43.7868 23.9344C44.3554 22.7033 45.1727 21.7362 46.2378 21.0327C47.3029 20.3148 48.5798 19.9556 50.068 19.9556ZM60.6419 31.1473C60.6419 32.2026 60.8243 32.9793 61.189 33.4775C61.5541 33.9756 62.1087 34.2248 62.8525 34.2248C63.6988 34.2248 64.3552 33.9538 64.8223 33.4116C65.3034 32.8548 65.5442 32.0779 65.5442 31.0815V24.2233H67.8642V35.9175H65.6976L65.6701 34.018C65.4353 34.5631 65.1091 35.013 64.691 35.3678C64.0345 35.9102 63.1882 36.1812 62.1521 36.1812C60.9846 36.1812 60.0514 35.7928 59.351 35.0162C58.6651 34.2248 58.3224 33.1332 58.3224 31.741V24.2233H60.6419V31.1473ZM74.7209 23.9577C76.2965 23.9577 77.493 24.3826 78.3103 25.2327C79.1416 26.068 79.5572 27.2476 79.5572 28.7716V33.3218C79.5572 33.6002 79.6012 33.7981 79.6886 33.9152C79.791 34.0178 79.9514 34.0691 80.1702 34.0691H80.5858V35.9156C80.5134 35.9303 80.3965 35.945 80.2361 35.9595C80.0753 35.9743 79.9079 35.9816 79.7326 35.9816C79.2365 35.9816 78.8059 35.9011 78.4412 35.7398C78.091 35.5787 77.8282 35.3148 77.6534 34.9484C77.547 34.7168 77.473 34.4391 77.431 34.1154C77.2942 34.4003 77.1058 34.6633 76.8655 34.9045C76.4859 35.3002 75.9973 35.6153 75.3993 35.8498C74.8158 36.0695 74.1808 36.1795 73.4954 36.1795C72.2845 36.1795 71.3143 35.9011 70.5844 35.3442C69.8695 34.7874 69.5118 34.0033 69.5118 32.992C69.5118 31.9809 69.8111 31.1969 70.4091 30.64C71.022 30.0685 71.9632 29.6582 73.2326 29.4092L77.2377 28.6397C77.2377 27.7312 77.0259 27.057 76.6028 26.6175C76.1796 26.163 75.5522 25.9359 74.7209 25.9359C73.977 25.9359 73.393 26.1046 72.9699 26.4415C72.5467 26.7641 72.255 27.2476 72.0946 27.8923L69.7092 27.7386C69.928 26.5662 70.468 25.643 71.3288 24.9687C72.204 24.2947 73.3346 23.9577 74.7209 23.9577ZM109.438 23.9577C111.014 23.9577 112.21 24.3826 113.027 25.2327C113.859 26.068 114.274 27.2476 114.274 28.7716V33.3218C114.274 33.6002 114.318 33.7981 114.406 33.9152C114.508 34.0178 114.668 34.0691 114.887 34.0691H115.303V35.9156C115.23 35.9303 115.113 35.945 114.953 35.9595C114.793 35.9743 114.625 35.9816 114.45 35.9816C113.953 35.9816 113.523 35.9011 113.158 35.7398C112.808 35.5787 112.545 35.3148 112.371 34.9484C112.264 34.7168 112.19 34.4393 112.148 34.1157C112.011 34.4004 111.823 34.6634 111.582 34.9045C111.203 35.3002 110.715 35.6153 110.116 35.8498C109.533 36.0695 108.898 36.1795 108.212 36.1795C107.001 36.1795 106.031 35.9011 105.302 35.3442C104.586 34.7874 104.229 34.0033 104.229 32.992C104.229 31.9809 104.528 31.1969 105.126 30.64C105.739 30.0685 106.68 29.6582 107.949 29.4092L111.954 28.6397C111.954 27.7312 111.743 27.057 111.32 26.6175C110.897 26.163 110.269 25.9359 109.438 25.9359C108.694 25.9359 108.11 26.1046 107.687 26.4415C107.264 26.7641 106.972 27.2476 106.811 27.8923L104.426 27.7386C104.645 26.5662 105.185 25.643 106.046 24.9687C106.921 24.2947 108.052 23.9577 109.438 23.9577ZM98.4825 35.911H96.3159L96.2499 34.1524C95.9292 34.7827 95.4401 35.2809 94.7837 35.6472C94.1417 35.9988 93.4124 36.1749 92.5951 36.1749C91.6034 36.1749 90.7352 35.9257 89.9908 35.4275C89.2614 34.929 88.6999 34.2258 88.3057 33.3171C87.9261 32.3939 87.7367 31.3094 87.7367 30.0638C87.7367 28.8183 87.9336 27.7411 88.3277 26.8326C88.7214 25.9094 89.2834 25.1986 90.0128 24.7004C90.7421 24.2022 91.6034 23.953 92.5951 23.953C93.3979 23.953 94.1128 24.1215 94.7402 24.4586C95.3672 24.7957 95.8418 25.2646 96.1625 25.8654V20.3041H98.4825V35.911ZM102.797 35.9177H100.477V24.2235H102.797V35.9177ZM83.8196 26.4397C83.9994 25.7942 84.2632 25.2972 84.6104 24.9486C85.1065 24.4649 85.7699 24.2233 86.6017 24.2233H87.7182V26.3115H86.6017C86.0182 26.3116 85.5296 26.4068 85.1354 26.5972C84.7418 26.7877 84.4425 27.0808 84.2382 27.4766C84.0489 27.8721 83.954 28.3851 83.954 29.0151V35.9175H81.6339V24.2233H83.7566L83.8196 26.4397ZM122.062 23.9577C122.937 23.9577 123.659 24.1555 124.228 24.5511C124.812 24.9321 125.25 25.4598 125.541 26.1338C125.848 26.7933 126.001 27.5481 126.001 28.3978V35.9156H123.681V29.1013C123.681 28.4126 123.608 27.8336 123.462 27.3649C123.316 26.8959 123.075 26.5367 122.74 26.2878C122.405 26.0385 121.967 25.914 121.427 25.914C120.61 25.914 119.946 26.1851 119.436 26.7273C118.925 27.2696 118.67 28.061 118.67 29.1013V35.9156H116.35V24.2213H118.472L118.529 26.2356C118.658 25.8947 118.822 25.597 119.019 25.3424C119.384 24.8735 119.829 24.5293 120.355 24.3093C120.88 24.0748 121.449 23.9577 122.062 23.9577ZM73.8231 31.0577C73.1232 31.1896 72.6272 31.4022 72.3354 31.6951C72.0581 31.9735 71.9198 32.3328 71.9198 32.7723C71.9198 33.2704 72.0871 33.6589 72.4228 33.9373C72.773 34.201 73.2546 34.3329 73.8671 34.3329C74.5675 34.3329 75.166 34.201 75.6621 33.9373C76.1576 33.6589 76.5448 33.2778 76.8221 32.7943C77.0993 32.3107 77.2377 31.7611 77.2377 31.1456V30.3982L73.8231 31.0577ZM108.54 31.0577C107.84 31.1896 107.344 31.4022 107.052 31.6951C106.775 31.9735 106.637 32.3328 106.637 32.7723C106.637 33.2704 106.804 33.6589 107.14 33.9373C107.49 34.201 107.971 34.3329 108.584 34.3329C109.285 34.3329 109.883 34.201 110.379 33.9373C110.875 33.6589 111.262 33.2778 111.539 32.7943C111.816 32.3107 111.954 31.7611 111.954 31.1456V30.3982L108.54 31.0577ZM93.208 25.9752C92.2743 25.9752 91.53 26.3416 90.9754 27.0745C90.4214 27.7924 90.1442 28.789 90.1442 30.0638C90.1442 31.3241 90.4214 32.3207 90.9754 33.0534C91.53 33.7861 92.2743 34.1524 93.208 34.1524C93.8355 34.1524 94.368 33.9913 94.8057 33.669C95.2433 33.3463 95.579 32.8776 95.8123 32.2621C96.0456 31.6465 96.1625 30.9138 96.1625 30.0638C96.1625 29.1846 96.0456 28.4445 95.8123 27.8437C95.579 27.2282 95.2433 26.7666 94.8057 26.4589C94.368 26.1365 93.8355 25.9752 93.208 25.9752ZM102.841 22.5308H100.433V20.2007H102.841V22.5308ZM50.3088 1C52.3365 1 53.9122 1.50554 55.0357 2.51668C56.1738 3.51327 56.9031 4.94204 57.2244 6.80315L53.7663 6.93501C53.5915 5.95313 53.2118 5.19122 52.6283 4.6489C52.0448 4.09202 51.2715 3.81358 50.3088 3.81358C49.477 3.81358 48.7691 4.03352 48.1856 4.47303C47.6021 4.91279 47.157 5.53544 46.8507 6.34156C46.544 7.14762 46.3911 8.09272 46.3911 9.17722C46.3911 10.2762 46.544 11.2289 46.8507 12.0347C47.1715 12.8261 47.6241 13.4342 48.2076 13.8593C48.7911 14.2843 49.484 14.4967 50.2863 14.4967C51.3374 14.4967 52.1467 14.2035 52.7157 13.6174C53.2997 13.0166 53.6644 12.1886 53.8103 11.1336L57.2898 11.2655C57.0855 12.5403 56.6843 13.6248 56.0863 14.5187C55.4878 15.4125 54.7 16.1015 53.7229 16.585C52.7597 17.0686 51.5997 17.3104 50.2428 17.3104C48.8275 17.3104 47.5656 16.9878 46.4566 16.3431C45.3625 15.6983 44.5018 14.7678 43.8742 13.5516C43.2615 12.3353 42.9551 10.8771 42.9551 9.17722C42.9551 7.52109 43.2542 6.085 43.8524 4.86883C44.4503 3.63776 45.3041 2.68533 46.4126 2.01114C47.5217 1.33715 48.8206 1 50.3088 1ZM81.6639 6.85074C81.9707 6.30856 82.4228 5.85415 83.0208 5.4878C83.6192 5.10675 84.3196 4.91622 85.122 4.91622C86.1141 4.91622 86.9749 5.17278 87.7047 5.6857C88.4341 6.18392 88.9956 6.89469 89.3898 7.81787C89.798 8.7411 90.0023 9.82565 90.0023 11.0712C90.0023 12.3168 89.798 13.4013 89.3898 14.3245C88.9956 15.2477 88.4341 15.9656 87.7047 16.4786C86.9749 16.977 86.1141 17.226 85.122 17.226C84.3052 17.226 83.5903 17.0502 82.9773 16.6986C82.3793 16.3467 81.9122 15.8559 81.5765 15.2257L81.5111 16.9623H78.3812V1.35524H81.6639V6.85074ZM63.46 4.9097C65.2105 4.9097 66.5239 5.32734 67.3991 6.16265C68.2894 6.99792 68.7345 8.22171 68.7345 9.83363V13.8562C68.7345 14.1933 68.7855 14.4204 68.8874 14.5377C69.0043 14.6401 69.1721 14.6915 69.3909 14.6915H69.7192V16.9556C69.6167 16.985 69.4494 17.0142 69.2156 17.0437C68.9968 17.0729 68.778 17.0876 68.5591 17.0876C68.0925 17.0876 67.6544 17.0068 67.2463 16.8458C66.8521 16.6844 66.5309 16.4134 66.2831 16.0323C66.1367 15.7991 66.0338 15.5097 65.9739 15.1642C65.829 15.4564 65.6401 15.7238 65.4078 15.9665C65.0427 16.3621 64.5616 16.67 63.9631 16.8897C63.3796 17.1095 62.7012 17.2194 61.9278 17.2194C60.7169 17.2194 59.7247 16.9411 58.9514 16.3842C58.193 15.8126 57.8134 15.0212 57.8134 14.0101C57.8134 12.9696 58.1346 12.1711 58.7765 11.6142C59.433 11.0426 60.3961 10.625 61.6651 10.3613L65.4513 9.61385C65.4513 8.85174 65.2765 8.28011 64.9263 7.89931C64.5905 7.50351 64.102 7.30561 63.46 7.30561C62.8325 7.30561 62.344 7.45218 61.9938 7.74537C61.6436 8.02381 61.4173 8.44144 61.3154 8.99832L58.0107 8.84437C58.2295 7.55484 58.8055 6.58033 59.7392 5.92084C60.6879 5.2468 61.9278 4.9097 63.46 4.9097ZM96.4433 4.9097C97.6392 4.9097 98.6828 5.16627 99.5726 5.67893C100.463 6.19185 101.156 6.91005 101.652 7.83323C102.148 8.7417 102.396 9.81888 102.396 11.0644C102.396 12.3103 102.148 13.3946 101.652 14.3178C101.156 15.241 100.463 15.9592 99.5726 16.472C98.6828 16.9703 97.6392 17.2194 96.4433 17.2194C95.2468 17.2194 94.2032 16.9703 93.3134 16.472C92.4232 15.9592 91.7303 15.241 91.2342 14.3178C90.7382 13.3946 90.4904 12.3103 90.4904 11.0644C90.4904 9.81888 90.7382 8.7417 91.2342 7.83323C91.7303 6.91005 92.4232 6.19185 93.3134 5.67893C94.2032 5.16627 95.2468 4.9097 96.4433 4.9097ZM73.7142 7.5701C73.9086 6.87312 74.1748 6.33913 74.5135 5.96829C74.9951 5.44066 75.6586 5.17693 76.5053 5.17693H77.5774V7.9026H76.5053C75.8924 7.9026 75.3888 7.98313 74.9951 8.14441C74.601 8.30548 74.3017 8.56209 74.0979 8.91369C73.9081 9.26554 73.8131 9.74163 73.8131 10.3425V16.959H70.5305V5.17693H73.6383L73.7142 7.5701ZM110.029 4.9097C110.875 4.9097 111.59 5.09285 112.174 5.4592C112.772 5.82555 113.224 6.34585 113.531 7.02004C113.851 7.67933 114.012 8.46332 114.012 9.37199V16.9556H110.729V10.471C110.729 9.84095 110.678 9.30596 110.576 8.86645C110.474 8.42674 110.291 8.09697 110.029 7.87719C109.766 7.6427 109.401 7.52559 108.935 7.52559C108.249 7.52559 107.724 7.78195 107.359 8.29487C106.994 8.79304 106.812 9.51856 106.812 10.471V16.9556H103.529V5.17344H106.484L106.556 7.06941C106.654 6.8232 106.768 6.60155 106.899 6.40451C107.264 5.87684 107.716 5.49578 108.256 5.26155C108.796 5.02707 109.387 4.9097 110.029 4.9097ZM62.7816 12.2516C62.256 12.3542 61.8549 12.53 61.5776 12.779C61.3154 13.0135 61.184 13.3214 61.184 13.7025C61.184 14.098 61.3154 14.4057 61.5776 14.6257C61.8404 14.8454 62.2196 14.9554 62.7162 14.9554C63.2557 14.9554 63.7298 14.8528 64.1384 14.6475C64.5471 14.4278 64.8678 14.1128 65.1016 13.7025C65.3349 13.292 65.4513 12.8085 65.4513 12.2516V11.68L62.7816 12.2516ZM84.2247 7.44419C83.6852 7.44419 83.2181 7.59082 82.8239 7.88396C82.4448 8.16239 82.153 8.57265 81.9487 9.11477C81.7588 9.65695 81.6639 10.3091 81.6639 11.0712C81.6639 11.8186 81.7588 12.4634 81.9487 13.0055C82.153 13.5479 82.4448 13.9655 82.8239 14.2585C83.2181 14.5516 83.6777 14.6982 84.2027 14.6982C84.9321 14.6982 85.5161 14.3832 85.9537 13.7529C86.4059 13.1081 86.6322 12.2142 86.6322 11.0712C86.6322 9.92826 86.4134 9.04161 85.9757 8.41133C85.5376 7.76659 84.9541 7.44419 84.2247 7.44419ZM96.4433 7.43768C95.626 7.43768 94.9915 7.76007 94.5389 8.40486C94.0868 9.03489 93.8605 9.92149 93.8605 11.0644C93.8605 12.2077 94.0868 13.1014 94.5389 13.7464C94.9915 14.3765 95.626 14.6915 96.4433 14.6915C97.2601 14.6915 97.8945 14.3765 98.3471 13.7464C98.7992 13.1014 99.0256 12.2077 99.0256 11.0644C99.0256 9.92149 98.7992 9.03489 98.3471 8.40486C97.8945 7.76007 97.2601 7.43768 96.4433 7.43768Z" fill="#3B3B3B"/>
<path d="M13.2769 32.8514C9.98351 32.8487 6.01114 31.4264 4.36877 28.7326C4.10261 28.2971 3.72476 27.5438 3.40624 26.7671C2.66098 24.9559 2.40702 23.4538 2.26651 22.5288C2.08936 21.3624 2.00035 20.1341 2.00035 18.85V18.4765C1.99862 18.2206 2.00213 17.7609 2.03791 17.1916C2.12169 15.904 2.60598 10.4913 6.51988 6.26653C7.02516 5.71969 7.47722 5.23749 8.21375 4.74002C10.6773 3.07437 13.338 3.25216 14.0152 3.30697C18.2083 3.64638 20.6989 6.84566 21.1213 7.406H18.6325C18.5286 7.40328 18.4248 7.4015 18.3183 7.4015C15.6549 7.4015 13.489 8.48886 12.0124 10.4859C10.7427 12.2036 9.98351 14.5939 9.85693 17.5445C9.84473 17.8336 9.83863 18.129 9.83863 18.4298V18.8034C9.83863 23.3289 11.173 26.6135 13.6112 28.3429C13.7298 28.4283 13.852 28.5091 13.9768 28.5863C15.1968 29.3423 16.6672 29.7374 18.3645 29.7374H18.3698V29.7464H21.3394C20.4153 30.5428 17.4841 32.855 13.2769 32.8514Z" fill="#3B3B3B"/>
<path d="M37.2655 23.5305H34.2342C33.9064 27.1425 32.5297 29.3997 31.7282 30.4938C27.5151 36.2445 19.2993 36.9899 13.8553 35.7572C11.0419 35.1201 8.93676 33.947 7.6875 33.1347C8.86748 33.6257 12.631 35.0145 17.1368 33.7313C18.2956 33.4018 22.5753 32.1121 25.0166 27.9237C26.0073 26.2255 26.3711 24.6063 26.5197 23.5314H23.5069L23.5032 23.5305L23.6888 23.3754C23.6888 23.3754 23.6888 23.3772 23.6888 23.3781H23.6907L29.8373 18.2608C30.154 17.9964 30.6156 17.9964 30.9323 18.2608L37.2646 23.5305H37.2655Z" fill="#01953F"/>
<path d="M19.7722 3.75428C17.1194 2.08808 14.5711 1.82811 13.377 1.7837C14.5938 1.41918 16.4514 0.993605 18.7289 1.00007C20.6555 1.00562 26.8117 1.04173 30.8068 5.74705C32.4726 7.70933 33.5478 10.2914 33.854 13.5138H25.9302C25.7893 12.4267 25.4431 10.7457 24.4952 8.92037C22.8876 5.82293 20.5474 4.23999 19.7722 3.75428Z" fill="#01953F"/>
</svg>
