<svg width="2790" height="1000" viewBox="0 0 2790 1000" fill="none" xmlns="http://www.w3.org/2000/svg">
<path d="M1120.88 526.18C1146.29 526.18 1167.75 530.675 1185.28 539.67C1203.09 548.66 1217.11 560.985 1227.33 576.647C1237.84 592.31 1245.15 610.151 1249.23 630.163L1199.73 632.772C1196.22 613.921 1188.34 598.691 1176.08 587.091C1163.81 575.199 1145.41 569.251 1120.88 569.251C1099.27 569.251 1081.6 574.621 1067.87 585.352C1054.14 596.082 1043.92 610.442 1037.2 628.423C1030.78 646.404 1027.57 666.275 1027.57 688.027C1027.57 710.654 1030.78 730.812 1037.2 748.502C1043.92 766.196 1054.14 780.264 1067.87 790.703C1081.89 800.855 1099.7 805.934 1121.31 805.934C1138.25 805.934 1152.86 802.308 1165.12 795.058C1177.39 787.807 1186.88 777.942 1193.6 765.472C1200.61 752.997 1204.4 739.22 1204.99 724.14H1121.75V684.548H1250.11V842.041H1217.69L1215.54 793.06C1211.97 800.852 1207.14 808.044 1201.04 814.633C1191.12 825.368 1179 833.775 1164.69 839.869C1150.67 845.959 1135.48 849.005 1119.12 849.005C1089.62 849.005 1064.36 842.187 1043.34 828.556C1022.31 814.633 1006.24 795.635 995.148 771.561C984.049 747.199 978.5 719.353 978.5 688.027C978.5 656.993 984.049 629.293 995.148 604.931C1006.53 580.564 1022.89 561.422 1044.21 547.499C1065.53 533.289 1091.09 526.18 1120.88 526.18ZM1332.54 747.692C1332.54 768.579 1336.19 783.951 1343.49 793.812C1350.8 803.672 1361.9 808.604 1376.79 808.604C1393.73 808.604 1406.87 803.239 1416.22 792.509C1425.85 781.487 1430.67 766.111 1430.67 746.39V610.648H1477.11V842.107H1433.74L1433.19 804.51C1428.49 815.299 1421.96 824.204 1413.59 831.227C1400.45 841.961 1383.51 847.326 1362.77 847.326C1339.4 847.326 1320.72 839.638 1306.7 824.267C1292.97 808.604 1286.11 786.998 1286.11 759.443V610.648H1332.54V747.692ZM1614.36 605.391C1645.9 605.391 1669.85 613.802 1686.21 630.626C1702.85 647.159 1711.17 670.506 1711.17 700.67V790.73C1711.17 796.241 1712.05 800.157 1713.8 802.476C1715.85 804.507 1719.06 805.522 1723.44 805.522H1731.76V842.068C1730.31 842.36 1727.97 842.651 1724.76 842.938C1721.54 843.23 1718.19 843.375 1714.68 843.375C1704.75 843.375 1696.13 841.781 1688.83 838.589C1681.82 835.401 1676.56 830.177 1673.06 822.926C1670.93 818.341 1669.45 812.845 1668.61 806.438C1665.87 812.076 1662.1 817.283 1657.29 822.056C1649.69 829.889 1639.91 836.125 1627.94 840.766C1616.26 845.115 1603.55 847.292 1589.83 847.292C1565.59 847.292 1546.17 841.781 1531.56 830.76C1517.25 819.738 1510.09 804.22 1510.09 784.203C1510.09 764.191 1516.08 748.674 1528.05 737.652C1540.32 726.339 1559.16 718.218 1584.57 713.29L1664.74 698.061C1664.74 680.079 1660.5 666.734 1652.03 658.035C1643.56 649.04 1631 644.545 1614.36 644.545C1599.47 644.545 1587.78 647.884 1579.31 654.552C1570.84 660.937 1565 670.506 1561.79 683.268L1514.04 680.225C1518.42 657.02 1529.23 638.747 1546.46 625.402C1563.98 612.062 1586.61 605.391 1614.36 605.391ZM2309.29 605.391C2340.84 605.391 2364.78 613.802 2381.14 630.626C2397.79 647.159 2406.11 670.506 2406.11 700.67V790.73C2406.11 796.241 2406.99 800.157 2408.74 802.476C2410.78 804.507 2413.99 805.522 2418.38 805.522H2426.7V842.068C2425.24 842.36 2422.9 842.651 2419.69 842.938C2416.48 843.23 2413.12 843.375 2409.62 843.375C2399.68 843.375 2391.07 841.781 2383.77 838.589C2376.76 835.401 2371.5 830.177 2368 822.926C2365.86 818.342 2364.38 812.848 2363.55 806.443C2360.8 812.079 2357.03 817.284 2352.22 822.056C2344.63 829.889 2334.85 836.125 2322.87 840.766C2311.19 845.115 2298.49 847.292 2284.76 847.292C2260.52 847.292 2241.1 841.781 2226.5 830.76C2212.18 819.738 2205.03 804.22 2205.03 784.203C2205.03 764.191 2211.02 748.674 2222.99 737.652C2235.26 726.339 2254.09 718.218 2279.5 713.29L2359.67 698.061C2359.67 680.079 2355.44 666.734 2346.97 658.035C2338.5 649.04 2325.94 644.545 2309.29 644.545C2294.4 644.545 2282.72 647.884 2274.25 654.552C2265.78 660.937 2259.93 670.506 2256.72 683.268L2208.97 680.225C2213.36 657.02 2224.16 638.747 2241.39 625.402C2258.91 612.062 2281.55 605.391 2309.29 605.391ZM2090 841.977H2046.63L2045.31 807.171C2038.89 819.646 2029.1 829.506 2015.96 836.757C2003.11 843.716 1988.51 847.2 1972.15 847.2C1952.3 847.2 1934.92 842.268 1920.02 832.407C1905.42 822.542 1894.18 808.623 1886.29 790.638C1878.69 772.365 1874.9 750.9 1874.9 726.247C1874.9 701.594 1878.84 680.274 1886.73 662.293C1894.61 644.02 1905.86 629.951 1920.46 620.091C1935.06 610.23 1952.3 605.298 1972.15 605.298C1988.22 605.298 2002.53 608.633 2015.09 615.305C2027.64 621.977 2037.14 631.259 2043.56 643.15V533.078H2090V841.977ZM2176.36 842.111H2129.93V610.653H2176.36V842.111ZM1796.49 654.516C1800.09 641.741 1805.37 631.904 1812.32 625.004C1822.25 615.431 1835.53 610.649 1852.18 610.648H1874.53V651.98H1852.18C1840.5 651.981 1830.72 653.866 1822.83 657.633C1814.95 661.404 1808.96 667.206 1804.87 675.039C1801.08 682.868 1799.18 693.02 1799.18 705.49V842.106H1752.74V610.648H1795.23L1796.49 654.516ZM2561.99 605.391C2579.51 605.391 2593.97 609.307 2605.36 617.136C2617.04 624.678 2625.8 635.122 2631.64 648.462C2637.77 661.515 2640.84 676.454 2640.84 693.273V842.068H2594.4V707.196C2594.4 693.565 2592.95 682.106 2590.02 672.828C2587.1 663.546 2582.28 656.437 2575.57 651.509C2568.85 646.576 2560.09 644.112 2549.28 644.112C2532.93 644.112 2519.64 649.478 2509.42 660.208C2499.19 670.943 2494.09 686.606 2494.09 707.196V842.068H2447.65V610.609H2490.14L2491.27 650.476C2493.86 643.729 2497.13 637.837 2501.09 632.799C2508.39 623.517 2517.3 616.704 2527.82 612.35C2538.33 607.709 2549.72 605.391 2561.99 605.391ZM1596.39 745.919C1582.38 748.529 1572.45 752.736 1566.61 758.534C1561.06 764.045 1558.29 771.155 1558.29 779.854C1558.29 789.714 1561.64 797.402 1568.36 802.913C1575.37 808.132 1585.01 810.742 1597.27 810.742C1611.29 810.742 1623.27 808.132 1633.2 802.913C1643.12 797.402 1650.87 789.86 1656.42 780.291C1661.97 770.718 1664.74 759.841 1664.74 747.658V732.865L1596.39 745.919ZM2291.33 745.919C2277.31 748.529 2267.38 752.736 2261.54 758.534C2255.99 764.045 2253.22 771.155 2253.22 779.854C2253.22 789.714 2256.58 797.402 2263.29 802.913C2270.3 808.132 2279.94 810.742 2292.21 810.742C2306.23 810.742 2318.2 808.133 2328.13 802.913C2338.06 797.402 2345.8 789.86 2351.35 780.291C2356.9 770.718 2359.67 759.841 2359.67 747.658V732.865L2291.33 745.919ZM1984.42 645.323C1965.73 645.323 1950.83 652.574 1939.73 667.08C1928.64 681.29 1923.09 701.015 1923.09 726.247C1923.09 751.192 1928.64 770.917 1939.73 785.419C1950.83 799.92 1965.73 807.171 1984.42 807.171C1996.98 807.171 2007.64 803.982 2016.4 797.602C2025.16 791.216 2031.88 781.939 2036.55 769.756C2041.22 757.573 2043.56 743.071 2043.56 726.247C2043.56 708.845 2041.22 694.197 2036.55 682.306C2031.88 670.122 2025.16 660.986 2016.4 654.896C2007.64 648.516 1996.98 645.323 1984.42 645.323ZM2177.24 577.15H2129.05V531.031H2177.24V577.15ZM1125.7 151C1166.29 151 1197.83 161.006 1220.32 181.019C1243.1 200.744 1257.7 229.023 1264.13 265.859L1194.91 268.469C1191.41 249.035 1183.81 233.955 1172.13 223.221C1160.45 212.199 1144.97 206.688 1125.7 206.688C1109.05 206.688 1094.88 211.041 1083.2 219.74C1071.52 228.444 1062.61 240.768 1056.48 256.723C1050.34 272.677 1047.28 291.383 1047.28 312.848C1047.28 334.6 1050.34 353.455 1056.48 369.405C1062.9 385.068 1071.96 397.105 1083.64 405.518C1095.32 413.93 1109.19 418.134 1125.25 418.134C1146.29 418.134 1162.49 412.331 1173.88 400.73C1185.57 388.839 1192.87 372.451 1195.79 351.569L1265.44 354.18C1261.35 379.411 1253.32 400.876 1241.35 418.57C1229.37 436.26 1213.6 449.897 1194.04 459.466C1174.76 469.039 1151.54 473.825 1124.38 473.825C1096.05 473.825 1070.79 467.44 1048.59 454.679C1026.69 441.917 1009.46 423.499 996.898 399.429C984.633 375.354 978.5 346.492 978.5 312.848C978.5 280.069 984.487 251.645 996.461 227.574C1008.43 203.208 1025.52 184.357 1047.71 171.013C1069.91 157.673 1095.91 151 1125.7 151ZM1753.34 266.801C1759.48 256.07 1768.53 247.076 1780.5 239.825C1792.48 232.283 1806.5 228.512 1822.56 228.512C1842.42 228.512 1859.65 233.59 1874.26 243.742C1888.86 253.603 1900.1 267.671 1907.99 285.943C1916.16 304.216 1920.25 325.682 1920.25 350.335C1920.25 374.988 1916.16 396.453 1907.99 414.726C1900.1 432.998 1888.86 447.208 1874.26 457.36C1859.65 467.225 1842.42 472.153 1822.56 472.153C1806.21 472.153 1791.9 468.674 1779.63 461.715C1767.66 454.751 1758.31 445.036 1751.59 432.562L1750.28 466.934H1687.63V158.031H1753.34V266.801ZM1388.95 228.383C1423.99 228.383 1450.28 236.649 1467.8 253.182C1485.62 269.714 1494.53 293.936 1494.53 325.84V405.456C1494.53 412.128 1495.55 416.624 1497.59 418.946C1499.93 420.973 1503.29 421.989 1507.67 421.989H1514.24V466.801C1512.19 467.384 1508.84 467.962 1504.16 468.545C1499.78 469.123 1495.4 469.415 1491.02 469.415C1481.68 469.415 1472.91 467.816 1464.74 464.628C1456.85 461.435 1450.42 456.07 1445.46 448.528C1442.53 443.911 1440.47 438.183 1439.27 431.346C1436.37 437.128 1432.59 442.422 1427.94 447.226C1420.63 455.055 1411 461.149 1399.02 465.498C1387.34 469.848 1373.76 472.024 1358.28 472.024C1334.04 472.024 1314.18 466.514 1298.7 455.492C1283.52 444.179 1275.92 428.515 1275.92 408.503C1275.92 387.908 1282.35 372.104 1295.2 361.082C1308.34 349.769 1327.62 341.503 1353.02 336.283L1428.81 321.49C1428.81 306.406 1425.31 295.092 1418.3 287.555C1411.58 279.721 1401.8 275.804 1388.95 275.804C1376.39 275.804 1366.61 278.705 1359.6 284.508C1352.59 290.019 1348.06 298.285 1346.02 309.307L1279.87 306.26C1284.25 280.737 1295.78 261.449 1314.47 248.396C1333.46 235.055 1358.28 228.383 1388.95 228.383ZM2049.18 228.383C2073.12 228.383 2094.01 233.461 2111.82 243.608C2129.64 253.76 2143.51 267.975 2153.44 286.247C2163.37 304.228 2168.33 325.548 2168.33 350.201C2168.33 374.859 2163.37 396.32 2153.44 414.593C2143.51 432.865 2129.64 447.08 2111.82 457.231C2094.01 467.092 2073.12 472.024 2049.18 472.024C2025.23 472.024 2004.34 467.092 1986.53 457.231C1968.71 447.08 1954.84 432.865 1944.91 414.593C1934.98 396.32 1930.02 374.859 1930.02 350.201C1930.02 325.548 1934.98 304.228 1944.91 286.247C1954.84 267.975 1968.71 253.76 1986.53 243.608C2004.34 233.461 2025.23 228.383 2049.18 228.383ZM1594.21 281.039C1598.1 267.244 1603.43 256.675 1610.21 249.335C1619.85 238.892 1633.13 233.672 1650.08 233.672H1671.54V287.62H1650.08C1637.81 287.62 1627.73 289.214 1619.85 292.406C1611.96 295.594 1605.97 300.673 1601.89 307.632C1598.09 314.596 1596.19 324.019 1596.19 335.911V466.87H1530.48V233.672H1592.69L1594.21 281.039ZM2321.13 228.383C2338.06 228.383 2352.37 232.008 2364.06 239.259C2376.03 246.51 2385.08 256.808 2391.22 270.152C2397.64 283.201 2400.86 298.718 2400.86 316.703V466.801H2335.14V338.455C2335.14 325.985 2334.12 315.396 2332.08 306.697C2330.03 297.994 2326.38 291.467 2321.13 287.117C2315.87 282.476 2308.56 280.158 2299.22 280.158C2285.5 280.158 2274.98 285.232 2267.68 295.384C2260.38 305.244 2256.73 319.604 2256.73 338.455V466.801H2191.02V233.603H2250.16L2251.6 271.129C2253.57 266.256 2255.86 261.869 2258.48 257.969C2265.78 247.525 2274.83 239.983 2285.64 235.347C2296.44 230.706 2308.27 228.383 2321.13 228.383ZM1375.37 373.698C1364.85 375.729 1356.82 379.209 1351.27 384.137C1346.02 388.778 1343.39 394.872 1343.39 402.414C1343.39 410.243 1346.02 416.333 1351.27 420.687C1356.53 425.036 1364.12 427.213 1374.06 427.213C1384.86 427.213 1394.35 425.182 1402.53 421.119C1410.71 416.77 1417.13 410.535 1421.81 402.414C1426.48 394.289 1428.81 384.72 1428.81 373.698V362.385L1375.37 373.698ZM1804.6 278.547C1793.8 278.547 1784.45 281.449 1776.56 287.251C1768.97 292.762 1763.13 300.882 1759.04 311.612C1755.24 322.343 1753.34 335.251 1753.34 350.335C1753.34 365.128 1755.24 377.89 1759.04 388.62C1763.13 399.355 1768.97 407.621 1776.56 413.419C1784.45 419.221 1793.65 422.122 1804.16 422.122C1818.76 422.122 1830.45 415.887 1839.21 403.413C1848.26 390.651 1852.79 372.957 1852.79 350.335C1852.79 327.713 1848.41 310.164 1839.65 297.689C1830.88 284.928 1819.2 278.547 1804.6 278.547ZM2049.18 278.418C2032.82 278.418 2020.12 284.799 2011.06 297.561C2002.01 310.031 1997.48 327.579 1997.48 350.201C1997.48 372.828 2002.01 390.518 2011.06 403.284C2020.12 415.754 2032.82 421.989 2049.18 421.989C2065.53 421.989 2078.23 415.754 2087.29 403.284C2096.34 390.518 2100.87 372.828 2100.87 350.201C2100.87 327.579 2096.34 310.031 2087.29 297.561C2078.23 284.799 2065.53 278.418 2049.18 278.418Z" fill="white"/>
<path d="M385.264 786.907C316.701 786.853 234.004 758.076 199.813 703.574C194.272 694.763 186.406 679.521 179.775 663.806C164.26 627.163 158.973 596.77 156.048 578.057C152.36 554.458 150.507 529.605 150.507 503.626V496.069C150.471 490.891 150.544 481.59 151.289 470.072C153.033 444.02 163.115 334.508 244.595 249.032C255.114 237.968 264.525 228.212 279.858 218.147C331.144 184.447 386.535 188.044 400.633 189.153C487.926 196.02 539.775 260.749 548.568 272.086H496.756C494.594 272.031 492.432 271.995 490.215 271.995C434.769 271.995 389.678 293.995 358.939 334.399C332.506 369.153 316.701 417.514 314.066 477.211C313.812 483.061 313.685 489.038 313.685 495.124V502.682C313.685 594.244 341.463 660.7 392.222 695.69C394.692 697.416 397.236 699.051 399.834 700.613C425.231 715.91 455.843 723.903 491.178 723.903H491.287V724.085H553.11C533.871 740.199 472.848 786.98 385.264 786.907Z" fill="white"/>
<path d="M858.737 596.969H799.094C792.645 668.457 765.557 713.13 749.788 734.785C666.891 848.602 505.24 863.354 398.126 838.956C342.771 826.348 301.35 803.13 276.77 787.052C299.987 796.771 374.037 824.258 462.692 798.861C485.492 792.339 569.697 766.814 617.731 683.917C637.224 650.308 644.382 618.261 647.307 596.987H588.028L587.955 596.969L591.607 593.899C591.607 593.899 591.607 593.935 591.607 593.953H591.643L712.582 492.671C718.813 487.439 727.897 487.439 734.128 492.671L858.719 596.969H858.737Z" fill="white"/>
<path d="M510.128 205.085C457.098 172.366 406.157 167.261 382.285 166.389C406.611 159.231 443.745 150.874 489.272 151.001C527.786 151.11 650.85 151.819 730.713 244.217C764.014 282.75 785.506 333.454 791.628 396.731H633.228C630.412 375.384 623.491 342.374 604.542 306.531C572.405 245.707 525.624 214.623 510.128 205.085Z" fill="white"/>
</svg>
