<svg id="Layer_1" enable-background="new 0 0 68 68" height="512" viewBox="0 0 68 68" width="512" xmlns="http://www.w3.org/2000/svg"><g id="_x34_6"><path d="m32.1 1.9c-.6 0-1 .4-1 1v5.5l-1.3-1.3c-.4-.4-1-.4-1.4 0s-.4 1 0 1.4l3 3c.4.4 1 .4 1.4 0l3-3c.4-.4.4-1 0-1.4s-1-.4-1.4 0l-1.3 1.3v-5.5c0-.5-.5-1-1-1z"/><path d="m22.1 1.9c-.6 0-1 .4-1 1v16.4l-1.8-1.8c-.4-.4-1-.4-1.4 0s-.4 1 0 1.4l3.5 3.5c.4.4 1 .4 1.4 0l3.5-3.5c.4-.4.4-1 0-1.4s-1-.4-1.4 0l-1.8 1.8v-16.4c0-.5-.5-1-1-1z"/><path d="m18.7 13.3c-6.1 1.1-9.7 3.4-9.7 6.3v27.9c0 4.2 7.6 6.6 15.2 6.8l2.7 4.6c.2.4.7.6 1.2.5l4.3-1.4c1.2 1.1 2.7 2 4.3 2.6l1.1 4.8c.1.5.5.8 1 .8h5.8c.5 0 .9-.3 1-.8l1.1-4.9c1.4-.6 2.7-1.3 3.8-2.3l4.5 1.4c.4.1.9 0 1.2-.5l2.9-5c.2-.4.2-.9-.2-1.2l-3.8-3.4c.2-1.4.1-2.9-.2-4.3l3.6-3.3c.3-.3.4-.8.2-1.2l-2.9-5c-.2-.4-.7-.6-1.2-.5l-5.2 1.7c-.9-.6-1.8-1.1-2.8-1.5l-1.1-4.9c-.1-.5-.5-.8-1-.8h-3.1v-9.9c0-4.4-8.3-6.8-16.2-6.8-.6 0-1 .4-1 1s.4 1 1 1c8.1 0 14.2 2.5 14.2 4.8s-6.1 4.8-14.2 4.8c-8.2-.3-14.2-2.8-14.2-5 0-1.4 2.8-3.4 8.1-4.3.5-.1.9-.6.8-1.2-.1-.5-.6-.9-1.2-.8zm20.7 24.8c0 2.3-6.1 4.8-14.2 4.8-8.2 0-14.2-2.5-14.2-4.8v-5.9c2.9 2.2 8.7 3.4 14.2 3.4s11.3-1.2 14.2-3.4zm-28.4 9.3v-5.9c2.9 2.2 8.7 3.4 14.2 3.4s11.3-1.2 14.2-3.4v5.9c0 2.3-6.1 4.8-14.2 4.8-8.2 0-14.2-2.5-14.2-4.8zm32.6-16 1 4.7c.1.3.3.6.6.7 1.1.4 2.2 1 3.2 1.7.3.2.6.3.9.2l4.9-1.6 2.1 3.6-3.3 3.2c-.3.2-.4.6-.3 1 .4 1.5.5 3.1.2 4.6-.1.3.1.7.3.9l3.6 3.2-2.1 3.6-4.4-1.2c-.3-.1-.7 0-1 .2-1.2 1.1-2.5 2-4 2.5-.3.1-.6.4-.6.7l-1 4.7h-4.2l-1-4.6c-.1-.3-.3-.6-.7-.7-1.7-.6-3.2-1.5-4.5-2.7-.3-.3-.7-.4-1-.2l-4.1 1.3-1.7-2.9c3.2-.1 6.4-.6 9-1.5 0 .2.1.4.2.5 1.5 1.5 3.5 2.4 5.7 2.4 4.3 0 7.9-3.5 7.9-7.9 0-2.5-1.2-4.9-3.3-6.4-.4-.3-1.1-.2-1.4.2s-.2 1.1.2 1.4c1.5 1.1 2.4 2.9 2.4 4.8 0 3.2-2.6 5.9-5.9 5.9-1.5 0-3-.6-4.1-1.6 2.4-1.1 4-2.7 4-4.6v-16h2.4zm-18.4-5.1c5.5 0 11.3-1.2 14.2-3.4v5.9c0 2.3-6.1 4.8-14.2 4.8-8.2 0-14.2-2.5-14.2-4.8v-5.9c2.9 2.3 8.7 3.4 14.2 3.4z"/></g></svg>