<svg width="74" height="74" viewBox="0 0 74 74" fill="none" xmlns="http://www.w3.org/2000/svg">
<path d="M73.9097 67.7226C73.8438 67.5267 73.7968 67.3226 73.7174 67.133C73.6551 66.9849 73.5404 66.8585 73.4736 66.7122C73.3445 66.4287 73.1241 66.2111 72.9517 65.9592C72.8018 65.7407 72.5941 65.5601 72.4054 65.3695C72.0785 65.0391 71.7444 64.7158 71.4166 64.3871C71.0266 63.997 70.6419 63.6007 70.2491 63.2133C69.9773 62.9451 69.692 62.6896 69.4193 62.4223C69.1385 62.1478 68.8667 61.8643 68.5904 61.5852C68.1886 61.1798 67.7859 60.7753 67.3849 60.369C67.0779 60.0583 66.7755 59.7441 66.4666 59.4353C66.1461 59.1139 65.8219 58.796 65.4978 58.4773C65.1799 58.1639 64.8576 57.8551 64.5424 57.5391C64.2291 57.224 63.9239 56.8998 63.6124 56.582C63.3596 56.3246 63.104 56.07 62.8476 55.8163C62.4358 55.4099 62.0196 55.0081 61.6105 54.5991C61.2521 54.2406 60.9044 53.8713 60.5478 53.5119C60.2236 53.1859 59.894 52.8654 59.5662 52.543C59.2981 52.2794 59.0263 52.0202 58.7608 51.7539C58.5035 51.4965 58.2533 51.2338 58.0014 50.9755C58.1044 50.8229 58.1983 50.682 58.294 50.5412C58.3409 50.4726 58.3906 50.4057 58.4366 50.3362C58.5974 50.0942 58.7563 49.8504 58.9179 49.6093C59.0389 49.4278 59.1707 49.2518 59.2854 49.0658C59.4642 48.7759 59.6322 48.4797 59.8055 48.1863C59.9175 47.9985 60.0403 47.8161 60.145 47.6246C60.2724 47.3926 60.3825 47.1506 60.5053 46.9158C60.6263 46.6838 60.7825 46.4652 60.8719 46.2223C60.9676 45.9596 61.1293 45.7329 61.2196 45.4657C61.2873 45.2643 61.4128 45.0783 61.4805 44.8679C61.5293 44.7171 61.588 44.5636 61.6737 44.4327C61.7794 44.272 61.811 44.0841 61.8977 43.9171C61.9952 43.7302 62.0593 43.5252 62.1343 43.3257C62.2047 43.1387 62.2706 42.9509 62.3365 42.7631C62.4187 42.5302 62.5018 42.2981 62.5794 42.0633C62.6426 41.8737 62.704 41.6841 62.7564 41.4918C62.8223 41.2525 62.8774 41.0114 62.9388 40.7712C62.9451 40.7477 62.9614 40.7279 62.9695 40.7044C62.9984 40.6132 63.0282 40.522 63.0526 40.4299C63.067 40.3748 63.0526 40.3017 63.0851 40.2646C63.2088 40.1202 63.1871 39.9459 63.2061 39.7788C63.2106 39.7382 63.2097 39.6886 63.2332 39.6615C63.3505 39.5242 63.3325 39.3581 63.3478 39.1982C63.3532 39.1423 63.3478 39.0727 63.3776 39.0321C63.4986 38.8687 63.4842 38.6799 63.5004 38.4948C63.5058 38.4316 63.5275 38.3693 63.5429 38.3061C63.5727 38.1815 63.6088 38.0578 63.6305 37.9323C63.653 37.805 63.6295 37.6587 63.6828 37.5494C63.7659 37.3788 63.7722 37.2072 63.7822 37.0293C63.7903 36.8912 63.7731 36.7395 63.8264 36.6194C63.9059 36.4388 63.9122 36.2582 63.9239 36.0713C63.9356 35.8763 63.9194 35.6722 63.9745 35.4889C64.0368 35.2812 64.0594 35.0762 64.0648 34.8641C64.072 34.5787 64.0747 34.2934 64.0874 34.0081C64.0955 33.813 64.1135 33.618 64.1316 33.4238C64.1524 33.1972 64.1939 32.9706 64.1984 32.7439C64.2084 32.2545 64.2029 31.7651 64.1984 31.2757C64.1975 31.1376 64.1767 30.9994 64.1641 30.8612C64.137 30.5696 64.1018 30.2788 64.0846 29.9863C64.0666 29.6856 64.0684 29.3831 64.0594 29.0815C64.0566 29.0003 64.0702 28.9091 64.0386 28.8395C63.9068 28.5533 63.942 28.2481 63.9203 27.9492C63.9122 27.8363 63.9266 27.709 63.8797 27.6124C63.7885 27.4264 63.7894 27.235 63.7803 27.0408C63.7713 26.863 63.784 26.6833 63.6747 26.5225C63.6458 26.4801 63.6485 26.4133 63.644 26.3564C63.6241 26.1397 63.597 25.9302 63.5302 25.7153C63.4508 25.4607 63.458 25.1798 63.3596 24.918C63.3027 24.7654 63.2936 24.5929 63.2449 24.4295C63.1727 24.1875 63.1447 23.9311 63.0625 23.6855C62.9812 23.4426 62.9397 23.187 62.881 22.9378C62.8774 22.9225 62.8693 22.908 62.8638 22.8927C62.8295 22.7879 62.7934 22.6832 62.7609 22.5775C62.7465 22.5315 62.7437 22.4809 62.7266 22.4358C62.6489 22.2281 62.5623 22.0231 62.4918 21.8127C62.4232 21.6087 62.3726 21.3983 62.313 21.1906C62.3067 21.168 62.2914 21.1472 62.2823 21.1256C62.2065 20.9432 62.127 20.7617 62.0566 20.5766C61.9889 20.3978 61.9564 20.2009 61.8616 20.0393C61.7938 19.9228 61.8065 19.7702 61.7261 19.6908C61.5835 19.5499 61.6205 19.3422 61.4877 19.1978C61.4038 19.1066 61.3803 18.9576 61.3315 18.8348C61.271 18.6822 61.2448 18.5016 61.1446 18.3833C61.0317 18.2515 61.0019 18.0889 60.9135 17.9499C60.7717 17.725 60.6904 17.4614 60.5767 17.2185C60.527 17.1119 60.4584 17.0135 60.3979 16.9124C60.3229 16.7869 60.2245 16.6686 60.1785 16.5331C60.1189 16.3571 60.0033 16.2189 59.9157 16.0627C59.8118 15.8776 59.7044 15.6934 59.5969 15.5092C59.4823 15.3105 59.3694 15.1101 59.2493 14.915C59.1256 14.7146 58.9929 14.5195 58.8637 14.3227C58.7075 14.0861 58.5567 13.8459 58.3933 13.6148C58.2199 13.3701 58.0321 13.1353 57.8542 12.8951C57.6457 12.6125 57.4461 12.3226 57.2294 12.0463C57.0371 11.8007 56.8294 11.5669 56.6226 11.3321C56.1919 10.8427 55.772 10.3425 55.3205 9.87383C54.8465 9.38172 54.3435 8.9176 53.846 8.44897C53.5553 8.17537 53.2537 7.91351 52.9521 7.65256C52.8212 7.53878 52.6622 7.45481 52.543 7.3311C52.236 7.01236 51.8749 6.76495 51.5236 6.50309C51.3728 6.39113 51.2175 6.28458 51.0676 6.17261C50.8383 6.00105 50.617 5.81865 50.3823 5.65431C50.1412 5.48636 49.8811 5.3446 49.6427 5.17484C49.3755 4.98432 49.0992 4.81095 48.8193 4.64029C48.6007 4.50666 48.3876 4.36489 48.1673 4.23577C47.8991 4.07865 47.6283 3.92606 47.3538 3.77978C47.2237 3.71025 47.0513 3.69038 46.9555 3.59196C46.8535 3.48722 46.7235 3.49083 46.6178 3.4204C46.4905 3.33462 46.3551 3.25877 46.216 3.19195C46.0689 3.12152 45.9036 3.08269 45.7646 3.00052C45.5885 2.89668 45.4052 2.81632 45.2174 2.74047C45.0494 2.67185 44.8878 2.58697 44.7225 2.51112C44.5925 2.45153 44.4634 2.38832 44.3307 2.33685C44.16 2.27094 43.9848 2.21856 43.8133 2.15536C43.6634 2.10028 43.5162 2.03978 43.369 1.98018C43.1929 1.90885 43.0214 1.82578 42.8417 1.76528C42.6313 1.69485 42.4146 1.64428 42.1997 1.58469C42.1843 1.58017 42.1636 1.57747 42.1554 1.56663C42.076 1.46279 41.9595 1.4664 41.8475 1.45466C41.7997 1.44925 41.7365 1.44654 41.7094 1.41674C41.6227 1.31832 41.5089 1.32464 41.397 1.31109C41.3419 1.30477 41.2705 1.30116 41.2371 1.26685C41.1459 1.17204 41.0322 1.18016 40.9202 1.16662C40.8642 1.1603 40.7938 1.16752 40.754 1.13773C40.615 1.03118 40.4543 1.02666 40.2926 1.01402C40.2457 1.01041 40.1897 0.997767 40.1563 0.968872C40.0615 0.8858 39.9504 0.883994 39.8366 0.875868C39.7725 0.871353 39.6949 0.875868 39.6479 0.842458C39.4971 0.732298 39.3265 0.740424 39.1567 0.72688C39.0917 0.721462 39.0113 0.730492 38.9671 0.69618C38.8253 0.585116 38.6628 0.597757 38.5012 0.58331C38.4289 0.576989 38.345 0.576989 38.2899 0.539065C38.1508 0.444255 37.9964 0.455993 37.8429 0.442449C37.7138 0.43071 37.5738 0.438837 37.461 0.388271C37.321 0.324161 37.1819 0.307908 37.0357 0.297976C36.8731 0.28714 36.6998 0.301587 36.5526 0.24741C36.3702 0.179688 36.1896 0.163435 36.0027 0.155309C35.823 0.147182 35.6442 0.139055 35.4645 0.134541C35.3715 0.131832 35.3065 0.0993252 35.2921 0H28.8314C28.8323 0.109258 28.7637 0.133638 28.6707 0.136346C28.4422 0.142667 28.2138 0.14357 27.9862 0.162532C27.868 0.172465 27.7533 0.220321 27.635 0.241992C27.5158 0.264566 27.3957 0.28082 27.2747 0.292558C27.0499 0.313326 26.8178 0.278111 26.6101 0.413554C26.5614 0.445158 26.4828 0.431613 26.4187 0.437031C26.2264 0.454187 26.0286 0.431613 25.8535 0.555318C25.8011 0.592339 25.7117 0.578795 25.6386 0.585116C25.4697 0.599563 25.2963 0.584213 25.1464 0.69618C25.1058 0.72688 25.0372 0.722365 24.9803 0.72688C24.8187 0.739521 24.6588 0.738618 24.5153 0.83975C24.462 0.877674 24.3744 0.871353 24.3022 0.878577C24.1902 0.890315 24.0719 0.875868 23.987 0.976096C23.9726 0.992349 23.9437 1.00409 23.9211 1.00409C23.6927 1.0077 23.4841 1.08084 23.2719 1.1594C23.1545 1.20274 23.0164 1.17836 22.9071 1.27227C22.8692 1.30477 22.7987 1.29755 22.7455 1.3147C22.648 1.34541 22.5513 1.37972 22.4538 1.41222C22.4087 1.42757 22.3635 1.44654 22.3166 1.45376C22.1911 1.47272 22.0574 1.45376 21.9608 1.57295C21.9364 1.60275 21.8696 1.60094 21.8218 1.60636C21.726 1.6181 21.6312 1.6181 21.5572 1.70478C21.5265 1.74 21.4506 1.73458 21.3974 1.75264C21.3152 1.78063 21.2348 1.81404 21.1536 1.84474C21.1165 1.85919 21.0804 1.88086 21.0416 1.88628C20.8014 1.92239 20.591 2.03346 20.3761 2.14001C20.2199 2.21766 20.0465 2.261 19.8831 2.32602C19.6998 2.40006 19.5192 2.48132 19.3377 2.55808C19.1761 2.6258 19.0118 2.6863 18.8528 2.76034C18.6975 2.83257 18.5467 2.91655 18.3941 2.99601C18.3734 3.00685 18.3535 3.024 18.3318 3.02852C18.1196 3.06734 17.9463 3.17931 17.7693 3.2976C17.642 3.38248 17.4722 3.40505 17.3467 3.49173C17.2122 3.58383 17.0487 3.61002 16.9232 3.7247C16.8365 3.80416 16.7038 3.83215 16.5945 3.89265C16.3544 4.02628 16.1178 4.16353 15.8884 4.31433C15.7665 4.39469 15.623 4.44255 15.4929 4.51117C15.4388 4.54007 15.3972 4.59063 15.3439 4.62314C15.0839 4.78206 14.8166 4.92924 14.562 5.09629C14.3281 5.24979 14.1105 5.42767 13.8821 5.5875C13.6428 5.75454 13.3936 5.90804 13.157 6.0787C12.8744 6.28277 12.6008 6.49767 12.3236 6.70897C12.2495 6.76585 12.1809 6.82996 12.1068 6.88866C11.891 7.06112 11.6671 7.22636 11.4576 7.40695C11.0856 7.7266 10.7181 8.05166 10.3551 8.38214C10.1249 8.59073 9.92078 8.83092 9.67879 9.02505C9.15959 9.44222 8.7659 9.97857 8.29546 10.4427C7.83766 10.8951 7.43223 11.4025 7.0241 11.9019C6.74599 12.2423 6.5058 12.6134 6.24304 12.9656C6.07238 13.194 5.87825 13.4044 5.71571 13.6383C5.54054 13.8884 5.39517 14.1584 5.22812 14.4148C5.10983 14.5963 4.96897 14.7624 4.85158 14.9448C4.72878 15.1363 4.62314 15.3385 4.50937 15.5345C4.34774 15.8117 4.1843 16.0862 4.02448 16.3643C3.94231 16.507 3.86646 16.6541 3.78881 16.7995C3.6633 17.0343 3.53778 17.269 3.41318 17.5038C3.35087 17.6221 3.28947 17.7413 3.22807 17.8596C3.13597 18.0393 3.07999 18.2343 2.96441 18.4068C2.87592 18.5395 2.84341 18.7093 2.78201 18.8619C2.73235 18.9856 2.70616 19.1364 2.61857 19.2239C2.47591 19.3657 2.51474 19.568 2.39013 19.7206C2.28087 19.8524 2.26552 20.0592 2.20231 20.2316C2.14362 20.3933 2.0768 20.5522 2.0154 20.7129C1.97838 20.8095 1.9567 20.9134 1.90524 21.0019C1.79688 21.1897 1.79869 21.4172 1.67589 21.5996C1.64609 21.6439 1.63616 21.7062 1.62713 21.7613C1.61178 21.8561 1.62171 21.9581 1.52419 22.0213C1.51245 22.0285 1.50613 22.0493 1.50252 22.0637C1.44383 22.2877 1.38694 22.5116 1.32644 22.7355C1.30568 22.8123 1.28039 22.8881 1.25421 22.964C1.24608 22.9866 1.2226 23.0037 1.21718 23.0263C1.15669 23.2674 1.0998 23.5085 1.04021 23.7496C1.01854 23.8344 0.990542 23.9175 0.963453 24.0015C0.95623 24.0241 0.937271 24.0439 0.932756 24.0674C0.874064 24.3266 0.818979 24.5857 0.759384 24.8449C0.730489 24.9695 0.688957 25.0914 0.661869 25.216C0.640198 25.3189 0.637489 25.4264 0.616721 25.5293C0.589632 25.6629 0.553514 25.7939 0.521008 25.9257C0.514687 25.9492 0.504752 25.9717 0.50114 25.9961C0.442448 26.3961 0.387371 26.797 0.324164 27.1961C0.298881 27.3542 0.251927 27.5095 0.222129 27.6666C0.20407 27.7623 0.197748 27.8607 0.19233 27.9582C0.178786 28.1939 0.168856 28.4305 0.155311 28.6662C0.148991 28.7691 0.127317 28.8639 0 28.8793V35.2912C0.125511 35.283 0.149891 35.3724 0.158017 35.4645C0.174271 35.6677 0.17969 35.8718 0.193234 36.0749C0.200458 36.1887 0.208584 36.3025 0.226643 36.4144C0.256441 36.5977 0.298879 36.7783 0.327774 36.9616C0.348542 37.0898 0.325064 37.2343 0.377435 37.3463C0.460507 37.5251 0.467733 37.7066 0.481277 37.8926C0.486695 37.9657 0.471346 38.0515 0.504755 38.1093C0.616722 38.3025 0.610401 38.5147 0.634781 38.7233C0.640199 38.7711 0.657352 38.8181 0.670896 38.8642C0.698888 38.9644 0.731393 39.0628 0.753967 39.1639C0.814465 39.4393 0.869545 39.7165 0.92914 39.9929C0.933655 40.0154 0.951717 40.0353 0.959843 40.0588C0.987835 40.1418 1.01944 40.224 1.04021 40.3098C1.10071 40.559 1.15669 40.81 1.21629 41.0592C1.2217 41.0827 1.23795 41.1035 1.24608 41.1261C1.27678 41.2164 1.30838 41.3067 1.33547 41.3979C1.35443 41.4593 1.35082 41.5378 1.38875 41.5821C1.46369 41.6705 1.47362 41.7699 1.48265 41.8755C1.48627 41.9152 1.48988 41.9595 1.50794 41.9938C1.63435 42.2412 1.69124 42.5121 1.78424 42.7694C1.84294 42.932 1.91066 43.0936 1.96303 43.2597C1.99373 43.3582 2.03165 43.4548 2.06687 43.5523C2.08041 43.5893 2.09396 43.6263 2.11021 43.6616C2.18786 43.8331 2.28538 43.9993 2.33956 44.1781C2.40186 44.3821 2.50661 44.5645 2.58968 44.7587C2.6574 44.9176 2.7197 45.0792 2.78652 45.239C2.84612 45.3826 2.90301 45.5289 2.97073 45.6688C3.04568 45.8232 3.13507 45.9704 3.21363 46.1239C3.29309 46.2774 3.36442 46.4345 3.44388 46.5889C3.55494 46.8057 3.66962 47.0206 3.78339 47.2364C3.908 47.4738 4.0299 47.7131 4.16083 47.947C4.27821 48.1592 4.40552 48.3651 4.52923 48.5736C4.63758 48.756 4.75858 48.9294 4.8543 49.1217C4.95543 49.3267 5.11435 49.5037 5.24257 49.6969C5.40329 49.9398 5.53151 50.2089 5.72204 50.4238C5.9234 50.6513 6.06516 50.9159 6.2593 51.1462C6.504 51.4351 6.72342 51.7457 6.95909 52.0437C7.12794 52.2577 7.30582 52.4654 7.47919 52.6758C7.58303 52.8022 7.68235 52.9331 7.79251 53.055C8.03902 53.3277 8.30539 53.5842 8.53655 53.8686C8.92843 54.3517 9.38262 54.7724 9.82597 55.2041C10.1565 55.5264 10.5357 55.8009 10.8544 56.1332C11.1994 56.4926 11.6192 56.7562 11.9777 57.0967C12.2558 57.3603 12.5863 57.5689 12.8942 57.8001C13.157 57.9978 13.417 58.201 13.6879 58.3861C13.9398 58.5585 14.2297 58.684 14.4572 58.8818C14.6252 59.0281 14.8302 59.1021 14.9981 59.2475C15.1724 59.3974 15.4207 59.457 15.6103 59.5924C15.8415 59.7577 16.0889 59.8868 16.3345 60.024C16.4311 60.0782 16.5476 60.1098 16.6234 60.1748C16.8248 60.3455 17.0722 60.4286 17.2916 60.5595C17.6086 60.7491 17.9616 60.8782 18.2993 61.0344C18.4212 61.0904 18.5413 61.15 18.6632 61.2069C18.8266 61.2837 18.9874 61.3631 19.1535 61.4345C19.307 61.5004 19.4668 61.5509 19.6194 61.6187C19.7829 61.6918 19.9373 61.7875 20.1034 61.8516C20.2858 61.923 20.4854 61.9528 20.6633 62.0322C20.8041 62.0945 20.9639 62.1261 21.0831 62.1984C21.2096 62.276 21.3296 62.2968 21.4615 62.3203C21.4994 62.3266 21.5346 62.3482 21.5716 62.3636C21.6439 62.3934 21.7143 62.4277 21.7883 62.4503C21.8425 62.4665 21.9075 62.453 21.9563 62.4774C22.22 62.6074 22.4954 62.6941 22.7825 62.7645C22.983 62.8142 23.1762 62.9 23.3866 62.918C23.401 62.9189 23.4137 62.9361 23.429 62.9415C23.5094 62.9722 23.5888 63.0128 23.6719 63.0309C23.9455 63.0905 24.2037 63.2205 24.4936 63.207C24.5153 63.2061 24.5379 63.2277 24.5604 63.234C24.6679 63.2647 24.7744 63.2982 24.8828 63.3225C24.9622 63.3397 25.0643 63.318 25.1212 63.3596C25.2801 63.4769 25.4589 63.4616 25.6349 63.4797C25.6999 63.486 25.7767 63.4778 25.8264 63.5094C25.988 63.6133 26.1686 63.5979 26.3447 63.6214C26.4548 63.6359 26.5614 63.6747 26.6697 63.6991C26.7411 63.7153 26.8124 63.7334 26.8846 63.7415C27.1817 63.774 27.4779 63.7912 27.775 63.8562C28.2002 63.9501 28.649 63.9095 29.0797 64.0169C29.2423 64.0575 29.421 64.0386 29.5917 64.0449C29.9502 64.0584 30.3132 64.0413 30.6662 64.0937C30.966 64.1388 31.2631 64.1695 31.5638 64.1614C32.2464 64.1424 32.9299 64.2038 33.6126 64.0873C33.9873 64.0232 34.3774 64.053 34.7602 64.0377C34.9471 64.0296 35.144 64.0467 35.3191 63.9943C35.5991 63.9113 35.8808 63.9131 36.1643 63.8914C36.2862 63.8824 36.4072 63.8688 36.5282 63.849C36.679 63.8246 36.8271 63.7858 36.9779 63.7623C37.377 63.7 37.777 63.6422 38.1761 63.5817C38.2005 63.5781 38.2231 63.5672 38.2465 63.5618C38.3793 63.5311 38.5111 63.4986 38.6438 63.4706C38.9427 63.4083 39.2425 63.3496 39.5414 63.2882C39.5648 63.2837 39.5865 63.2702 39.6091 63.262C39.6913 63.235 39.7734 63.2033 39.8574 63.1835C40.122 63.1221 40.3983 63.0941 40.6475 62.9957C40.7938 62.9379 40.9319 62.8918 41.0854 62.8765C41.1315 62.872 41.1748 62.8458 41.22 62.8286C41.2931 62.8006 41.3635 62.7618 41.4394 62.7456C41.5333 62.7266 41.6299 62.7356 41.7076 62.6525C41.741 62.6164 41.8114 62.6146 41.8656 62.6002C42.0805 62.5415 42.3071 62.5099 42.5058 62.4178C42.625 62.3618 42.736 62.3112 42.8661 62.2941C42.9031 62.2896 42.9365 62.2625 42.9717 62.2462C43.0349 62.2173 43.0972 62.1749 43.164 62.1622C43.2607 62.1442 43.3401 62.1117 43.4277 62.0611C43.5839 61.9717 43.7681 61.9329 43.9388 61.8688C44.1085 61.8056 44.2783 61.7415 44.4435 61.6701C44.6097 61.5979 44.7686 61.5112 44.9347 61.4399C45.0873 61.3749 45.249 61.3324 45.3979 61.2611C45.6399 61.1455 45.872 61.0074 46.1131 60.8909C46.4896 60.7085 46.8761 60.5441 47.2291 60.3157C47.3267 60.2525 47.4341 60.2055 47.5389 60.1532C47.6779 60.0827 47.8233 60.024 47.9569 59.9446C48.1511 59.8299 48.3253 59.6782 48.5285 59.5843C48.8337 59.4425 49.0965 59.2349 49.3899 59.075C49.6951 58.9089 49.9687 58.6813 50.2658 58.4953C50.5168 58.3373 50.7471 58.1468 51.0053 57.9563C51.3331 58.2931 51.6464 58.6208 51.9661 58.9423C52.3959 59.3739 52.8329 59.7983 53.2636 60.229C53.8469 60.8123 54.4257 61.4001 55.009 61.9835C55.4343 62.4087 55.8632 62.8295 56.2912 63.2512C56.6054 63.5609 56.9233 63.867 57.2366 64.1776C57.5924 64.5307 57.9454 64.8856 58.2967 65.2413C58.6543 65.6043 59.0046 65.9745 59.3658 66.3348C59.7712 66.7393 60.1902 67.1321 60.5947 67.5375C60.9577 67.9014 61.3053 68.2807 61.6683 68.6437C62.0819 69.0572 62.5081 69.4581 62.9216 69.8708C63.3225 70.2717 63.709 70.6861 64.1108 71.0853C64.4756 71.4482 64.8666 71.7859 65.2178 72.1607C65.6468 72.6176 66.0973 73.0447 66.6301 73.377C66.8287 73.5007 67.0337 73.6235 67.2522 73.7038C67.4454 73.7752 67.6269 73.8907 67.8437 73.9007C67.8762 73.9025 67.9059 73.9657 67.9376 74H70.5318C70.5507 73.9007 70.6239 73.879 70.7114 73.8682C70.9354 73.8402 71.1295 73.7336 71.3227 73.6253C71.4383 73.5603 71.5584 73.5025 71.6776 73.4438C72.0108 73.2785 72.3033 73.051 72.5769 72.8045C72.763 72.6365 72.9399 72.4496 73.0808 72.2438C73.2199 72.0388 73.3752 71.8465 73.498 71.6252C73.6334 71.3814 73.7147 71.1133 73.8646 70.8776C73.9043 70.8144 73.9016 70.7214 73.9124 70.6419C73.9205 70.5814 73.9314 70.5281 74.0072 70.5245V67.9303C73.9747 67.859 73.9368 67.7904 73.9115 67.7163L73.9097 67.7226ZM51.036 54.8411C50.7868 55.056 50.5457 55.2853 50.273 55.465C50.068 55.5996 49.9028 55.7883 49.6969 55.9002C49.4269 56.0474 49.2048 56.2569 48.9421 56.414C48.7281 56.5431 48.5195 56.7003 48.3064 56.842C48.0987 56.9811 47.8919 57.1219 47.6806 57.2547C47.3944 57.4344 47.1073 57.6149 46.8129 57.7829C46.5944 57.9075 46.3641 58.0113 46.1402 58.1269C45.9352 58.2335 45.7348 58.3463 45.5289 58.4511C45.3591 58.5378 45.1848 58.6145 45.0142 58.6994C44.8643 58.7743 44.7207 58.8601 44.5699 58.9315C44.4137 59.0055 44.2512 59.0669 44.0923 59.1337C43.9478 59.1942 43.7826 59.2285 43.6652 59.3233C43.5216 59.438 43.3067 59.382 43.1992 59.5518C43.0539 59.5482 42.9446 59.6376 42.8191 59.6881C42.6963 59.7378 42.5681 59.7604 42.4444 59.8281C42.2746 59.9211 42.0688 59.9464 41.8818 60.0105C41.6642 60.0854 41.4502 60.1721 41.2344 60.2516C41.182 60.2705 41.1243 60.2769 41.0701 60.2931C40.9861 60.3184 40.9039 60.3473 40.8209 60.3744C40.7676 60.3924 40.7161 60.4204 40.6619 60.4277C40.5337 60.4448 40.4019 60.4466 40.3008 60.545C40.2953 60.5496 40.2854 60.5496 40.2773 60.5514C40.019 60.6119 39.759 60.6669 39.5016 60.7329C39.2299 60.8033 38.9608 60.8827 38.6908 60.9586C38.6754 60.9631 38.6601 60.9703 38.6447 60.9739C38.3359 61.0335 38.0271 61.0913 37.7183 61.1518C37.5522 61.1843 37.3878 61.2223 37.2226 61.2575C37.2063 61.2611 37.191 61.2674 37.1747 61.2692C36.7169 61.327 36.2582 61.3812 35.8004 61.4426C35.609 61.4679 35.4185 61.5085 35.227 61.5392C35.1467 61.5518 35.0654 61.5636 34.9851 61.5663C34.6176 61.578 34.2509 61.5771 33.8843 61.5988C33.6667 61.6114 33.4518 61.6584 33.2351 61.6882C33.1791 61.6963 33.1223 61.7017 33.0654 61.7017C32.6003 61.7044 32.1353 61.718 31.6712 61.7044C31.3642 61.6954 31.0581 61.6385 30.7511 61.6223C30.2545 61.5961 29.7569 61.5889 29.2603 61.5663C29.1501 61.5609 29.0418 61.5184 28.9307 61.4995C28.8034 61.4778 28.6743 61.457 28.5452 61.4462C28.2634 61.4218 27.9763 61.4534 27.7036 61.336C27.6106 61.2963 27.495 61.308 27.3894 61.299C27.2205 61.2837 27.0454 61.299 26.8928 61.197C26.8801 61.1889 26.8612 61.1852 26.8458 61.1861C26.4756 61.1961 26.1343 61.0399 25.7722 61.0001C25.6783 60.9902 25.5871 60.9487 25.495 60.9207C25.4643 60.9107 25.4345 60.8963 25.4029 60.89C25.1185 60.8313 24.8313 60.7852 24.5514 60.7139C24.313 60.6534 24.0819 60.564 23.848 60.4864C23.8254 60.4791 23.8028 60.4674 23.7794 60.462C23.5545 60.4042 23.3044 60.3897 23.1103 60.2778C22.8945 60.1541 22.6263 60.2119 22.4367 60.0358C22.4069 60.0078 22.3419 60.0195 22.2958 60.006C22.2118 59.9807 22.1297 59.9509 22.0475 59.9202C22.0258 59.9121 22.0105 59.8859 21.9888 59.8787C21.801 59.8182 21.6077 59.7694 21.4235 59.699C21.2565 59.6349 21.0985 59.5464 20.936 59.4687C20.9143 59.4588 20.8926 59.4443 20.8691 59.4407C20.6244 59.4001 20.4267 59.2448 20.2037 59.1644C19.9219 59.0615 19.6718 58.8863 19.3747 58.8213C19.2709 58.7987 19.1779 58.7265 19.0813 58.6741C18.6786 58.4547 18.2767 58.2344 17.8749 58.015C17.5761 57.8524 17.2645 57.7107 16.9819 57.5247C16.7155 57.3486 16.4257 57.2122 16.1783 57C16.0094 56.8547 15.7819 56.7797 15.5895 56.6587C15.4406 56.5648 15.3123 56.4384 15.1634 56.3436C14.9512 56.2099 14.7886 56.0023 14.5385 55.9273C14.264 55.6275 13.9001 55.4388 13.6021 55.1661C13.3583 54.9431 13.0884 54.7508 12.8419 54.5277C12.3642 54.0952 11.8703 53.6835 11.4143 53.2257C10.9745 52.7841 10.5321 52.3444 10.1149 51.8821C9.81604 51.5507 9.50813 51.2229 9.24266 50.8653C9.01512 50.5592 8.7632 50.2739 8.53926 49.9642C8.34513 49.696 8.14647 49.4296 7.95505 49.1579C7.80786 48.9484 7.63811 48.7569 7.5135 48.5276C7.38348 48.2874 7.2065 48.0725 7.05841 47.8422C6.92568 47.6364 6.80559 47.4224 6.67827 47.2129C6.504 46.9258 6.32431 46.6431 6.15636 46.3533C6.0787 46.2187 6.02724 46.0679 5.95681 45.9289C5.88638 45.7916 5.8042 45.6607 5.73197 45.5244C5.66244 45.3943 5.60465 45.258 5.52971 45.1307C5.4358 44.9699 5.39336 44.7875 5.2841 44.6322C5.21729 44.5365 5.18749 44.4155 5.14144 44.3045C5.07191 44.1365 5.0069 43.9668 4.93376 43.7997C4.86603 43.6444 4.79018 43.4918 4.71795 43.3383C4.70079 43.3013 4.6737 43.267 4.66648 43.229C4.61772 42.9852 4.49763 42.7712 4.40101 42.5464C4.32336 42.3649 4.27911 42.1681 4.2141 41.9803C4.14186 41.7708 4.0624 41.5631 3.98565 41.3554C3.97753 41.3328 3.96217 41.3121 3.95585 41.2895C3.89265 41.0583 3.83576 40.8245 3.76623 40.5951C3.694 40.3585 3.60551 40.1274 3.53327 39.8908C3.50528 39.7987 3.53327 39.6795 3.48451 39.6046C3.31205 39.3346 3.42311 38.9906 3.23981 38.7242C3.20369 38.6709 3.22265 38.5806 3.21363 38.5084C3.2046 38.4362 3.21362 38.3495 3.1766 38.2944C3.05831 38.1192 3.0863 37.9215 3.06192 37.7309C3.04838 37.6289 3.00323 37.5323 2.98066 37.4312C2.95809 37.3291 2.93913 37.2253 2.9301 37.1214C2.91384 36.9282 2.91835 36.7368 2.82084 36.5526C2.76846 36.4533 2.79375 36.3133 2.78472 36.1923C2.76395 35.935 2.80729 35.6695 2.66733 35.4275C2.63753 35.376 2.64747 35.3002 2.64566 35.2352C2.63754 34.9661 2.64115 34.6961 2.62218 34.4279C2.60774 34.2266 2.56349 34.027 2.5337 33.8266C2.52196 33.7462 2.50751 33.6649 2.50751 33.5846C2.50571 32.5976 2.5039 31.6107 2.50931 30.6238C2.50931 30.4793 2.54814 30.3348 2.56711 30.1904C2.58607 30.045 2.61225 29.8996 2.61948 29.7533C2.63393 29.4689 2.63212 29.1827 2.64928 28.8973C2.6556 28.7872 2.69984 28.6797 2.71971 28.5695C2.74228 28.4422 2.76395 28.314 2.77569 28.1849C2.79916 27.9275 2.77118 27.6693 2.89217 27.4201C2.95177 27.2973 2.91474 27.1302 2.93461 26.9858C2.94996 26.8756 2.98517 26.7681 3.01317 26.6598C3.01949 26.6363 3.04025 26.6146 3.04025 26.5921C3.02852 26.2462 3.18924 25.9302 3.21814 25.5925C3.22807 25.4805 3.21814 25.3631 3.31024 25.2738C3.32559 25.2584 3.3301 25.2295 3.33462 25.206C3.39421 24.9315 3.44478 24.6543 3.51431 24.3834C3.57571 24.1442 3.65788 23.9103 3.73102 23.6737C3.74366 23.6349 3.76172 23.5988 3.77256 23.559C3.83486 23.327 3.88723 23.0913 3.96037 22.8629C4.02628 22.6588 4.12109 22.4638 4.19243 22.2615C4.25834 22.0746 4.3071 21.8813 4.37121 21.6935C4.42449 21.5364 4.48138 21.3802 4.55 21.2294C4.64752 21.0145 4.71975 20.7861 4.82269 20.5784C4.90125 20.4195 4.92382 20.2344 5.05475 20.0881C5.15678 19.9734 5.17936 19.7901 5.24166 19.6384C5.29494 19.5075 5.3446 19.3747 5.40961 19.2501C5.48185 19.112 5.5893 18.9901 5.64529 18.8474C5.68592 18.7418 5.73919 18.6497 5.79247 18.5521C5.91527 18.3264 5.99112 18.0718 6.13288 17.8605C6.31528 17.5869 6.43537 17.2781 6.64034 17.0171C6.77488 16.8447 6.85434 16.6298 6.97624 16.4465C7.19927 16.1096 7.40966 15.7656 7.64443 15.436C7.81057 15.2022 7.97221 14.9575 8.13474 14.7182C8.32526 14.4365 8.53836 14.1701 8.74604 13.9001C8.87516 13.7322 9.0088 13.5678 9.14695 13.4071C9.55147 12.934 9.9271 12.4364 10.3759 12.0003C10.8274 11.5615 11.2599 11.1028 11.7104 10.663C12.1186 10.2648 12.5141 9.85487 12.9782 9.51355C13.3665 9.22822 13.7096 8.88058 14.0879 8.5808C14.3669 8.35957 14.6721 8.17266 14.962 7.96588C15.2013 7.79522 15.4324 7.61283 15.6753 7.44759C15.8622 7.32027 16.0627 7.21282 16.2568 7.09634C16.432 6.99159 16.637 6.91574 16.7733 6.77398C16.8907 6.65208 17.046 6.63492 17.1697 6.53741C17.3747 6.37668 17.6248 6.27194 17.8451 6.12385C17.9454 6.05613 18.07 6.03356 18.1801 5.96313C18.3977 5.82407 18.6506 5.74371 18.8835 5.62723C19.214 5.46198 19.5373 5.27959 19.8687 5.11705C20.024 5.0403 20.1964 4.99967 20.3572 4.93195C20.5251 4.86062 20.6867 4.77393 20.852 4.69718C20.9883 4.63397 21.1382 4.62133 21.2755 4.53645C21.4308 4.44074 21.6294 4.41636 21.8055 4.35225C21.9996 4.28182 22.1902 4.20055 22.3825 4.12561C22.434 4.10574 22.489 4.0922 22.5414 4.07414C22.6236 4.04525 22.7048 4.01545 22.7861 3.98475C22.8015 3.97933 22.8141 3.96579 22.8286 3.96217C23.0597 3.89897 23.2909 3.83666 23.522 3.77526C23.5771 3.76081 23.652 3.76894 23.6836 3.73463C23.7803 3.63169 23.9031 3.64253 24.0223 3.62808C24.0629 3.62356 24.1144 3.62808 24.1405 3.60551C24.2679 3.49264 24.4349 3.52605 24.574 3.47548C24.8033 3.39241 25.0489 3.37977 25.2701 3.30482C25.4417 3.24613 25.6069 3.2082 25.783 3.19015C25.8155 3.18653 25.8571 3.19466 25.8787 3.1775C26.0774 3.0249 26.314 3.07096 26.537 3.04296C26.6228 3.03213 26.7049 2.99601 26.788 2.97073C26.8268 2.95899 26.8639 2.93822 26.9027 2.9319C27.2946 2.87501 27.6865 2.81542 28.0792 2.76756C28.296 2.74047 28.5136 2.7495 28.7267 2.67004C28.8594 2.62038 29.0165 2.63212 29.1628 2.62489C29.4563 2.61045 29.7578 2.64115 30.0414 2.58336C30.7285 2.4425 31.4211 2.51564 32.111 2.49848C32.5516 2.49848 32.9922 2.48945 33.432 2.50209C33.6487 2.50841 33.8645 2.55627 34.0812 2.58246C34.1706 2.59329 34.26 2.59781 34.3494 2.60142C34.6753 2.61677 35.0094 2.58968 35.3246 2.6556C35.693 2.73235 36.0722 2.7179 36.4307 2.80187C36.7196 2.8696 37.0203 2.84973 37.2903 2.93732C37.5522 3.0231 37.8276 2.99601 38.0714 3.0854C38.2836 3.16306 38.5147 3.13958 38.7016 3.22446C38.9635 3.34275 39.2669 3.28496 39.5062 3.45742C39.5414 3.4827 39.6001 3.4818 39.6479 3.48541C39.7942 3.49715 39.9405 3.49444 40.0642 3.59828C40.0976 3.62627 40.1554 3.62627 40.2032 3.63169C40.3306 3.64794 40.4633 3.6344 40.5644 3.74637C40.5906 3.77526 40.6565 3.77436 40.7044 3.77797C40.8191 3.787 40.9283 3.79513 41.0222 3.8791C41.0592 3.91251 41.1288 3.908 41.183 3.92606C41.2651 3.95314 41.3473 3.98294 41.4286 4.01364C41.4511 4.02177 41.471 4.03983 41.4936 4.04705C41.6994 4.10755 41.908 4.16173 42.113 4.22764C42.2168 4.26105 42.3107 4.32607 42.4155 4.35677C42.513 4.38566 42.6096 4.38115 42.6999 4.46422C42.7956 4.5509 42.9518 4.52833 43.0746 4.60959C43.2218 4.70711 43.4114 4.73781 43.5794 4.80734C43.7546 4.87958 43.9252 4.96265 44.0977 5.04121C44.2268 5.1008 44.355 5.16401 44.4851 5.2209C44.7298 5.32835 44.9853 5.41503 45.2201 5.54235C45.5027 5.69585 45.7826 5.84664 46.0779 5.97577C46.2765 6.06245 46.449 6.20692 46.6359 6.3207C46.7497 6.39022 46.8698 6.44982 46.9854 6.51573C47.1885 6.63131 47.3935 6.74599 47.593 6.86698C47.8007 6.9925 48.0048 7.12342 48.207 7.25706C48.3931 7.38077 48.5728 7.5135 48.7579 7.63901C49.0044 7.80606 49.2527 7.96949 49.4992 8.13654C49.5443 8.16724 49.5832 8.20607 49.6265 8.23858C50.0292 8.54468 50.4365 8.84446 50.8329 9.15779C51.0676 9.34289 51.2843 9.55057 51.5083 9.74922C51.8785 10.0779 52.2541 10.4003 52.6144 10.7398C52.9196 11.0269 53.2103 11.3312 53.5002 11.6355C53.9146 12.0698 54.3011 12.5294 54.6939 12.9836C55.0027 13.3403 55.2935 13.7096 55.5842 14.0789C55.8867 14.4627 56.154 14.8735 56.4393 15.2708C56.6027 15.4983 56.8086 15.7033 56.9233 15.9525C57.0262 16.1756 57.2059 16.3417 57.298 16.5756C57.3657 16.7489 57.5003 16.907 57.5969 17.0785C57.6637 17.1986 57.7739 17.2961 57.8281 17.4198C57.9897 17.7901 58.2172 18.1241 58.4005 18.4817C58.5224 18.7192 58.6181 18.9702 58.7346 19.2113C58.9098 19.5761 59.1003 19.9328 59.2665 20.3012C59.3938 20.5847 59.4877 20.8818 59.6024 21.1698C59.6755 21.3531 59.7685 21.5283 59.8371 21.7134C59.9085 21.9066 59.9581 22.1089 60.024 22.3048C60.0593 22.4087 60.1234 22.5044 60.1496 22.6109C60.1766 22.7193 60.1604 22.834 60.2624 22.9197C60.2967 22.9495 60.2931 23.0263 60.3013 23.0814C60.3139 23.178 60.3139 23.271 60.3915 23.3514C60.4304 23.392 60.4349 23.4715 60.4421 23.5347C60.4566 23.6566 60.4593 23.7767 60.5532 23.8751C60.5821 23.9049 60.5839 23.9663 60.5893 24.0132C60.6037 24.1414 60.6019 24.2706 60.6977 24.3789C60.7302 24.4159 60.7275 24.4864 60.7347 24.5424C60.7527 24.685 60.7283 24.8394 60.8521 24.9514C60.8575 24.9559 60.8584 24.9667 60.8593 24.9749C60.9171 25.2665 60.9776 25.5573 61.029 25.8498C61.0516 25.9763 61.039 26.1045 61.1302 26.2192C61.1744 26.2742 61.1645 26.3736 61.1726 26.4539C61.1898 26.6472 61.1834 26.8386 61.2801 27.0228C61.3324 27.123 61.3162 27.2612 61.3234 27.3822C61.3342 27.56 61.3396 27.7343 61.4164 27.9059C61.4643 28.0115 61.4561 28.1452 61.4643 28.2662C61.4832 28.5488 61.4561 28.835 61.5726 29.1077C61.6033 29.179 61.5979 29.2684 61.6015 29.3497C61.6087 29.5131 61.606 29.6766 61.6151 29.8391C61.6412 30.3095 61.6448 30.7791 61.6972 31.2504C61.7604 31.8139 61.7677 32.3972 61.699 32.9588C61.6322 33.5123 61.6394 34.0631 61.6096 34.6148C61.597 34.8496 61.5925 35.0799 61.5094 35.311C61.4489 35.4799 61.4778 35.6812 61.4679 35.8681C61.4588 36.0551 61.448 36.2356 61.3713 36.4162C61.3171 36.5445 61.3342 36.7034 61.3234 36.8497C61.3108 37.0113 61.3189 37.1729 61.2223 37.3201C61.1861 37.3761 61.1916 37.461 61.1843 37.5332C61.1672 37.7255 61.1898 37.9242 61.0642 38.0975C61.0308 38.1436 61.0417 38.224 61.0363 38.289C61.0236 38.4416 61.0281 38.596 60.9288 38.7314C60.8945 38.7784 60.8972 38.856 60.8918 38.9201C60.8782 39.0736 60.8864 39.228 60.7789 39.3608C60.7437 39.405 60.7581 39.4863 60.7419 39.5486C60.7139 39.6569 60.6805 39.7626 60.648 39.8691C60.6435 39.8845 60.6245 39.898 60.6254 39.9116C60.6444 40.1698 60.4746 40.3802 60.4457 40.6267C60.4376 40.6954 60.4006 40.7604 60.3753 40.8263C60.3554 40.8796 60.3211 40.9301 60.3157 40.9843C60.3004 41.1306 60.2552 41.2588 60.192 41.3951C60.1315 41.527 60.0972 41.6787 60.0385 41.8204C59.9599 42.011 59.9211 42.2168 59.857 42.4137C59.8055 42.5726 59.7459 42.7288 59.6836 42.8832C59.6042 43.081 59.5193 43.2769 59.438 43.4737C59.3766 43.6218 59.3179 43.7717 59.2538 43.9189C59.1744 44.0977 59.094 44.2765 59.0073 44.4526C58.9351 44.5988 58.8511 44.7397 58.7753 44.8842C58.7129 45.0043 58.6434 45.1216 58.6001 45.249C58.5026 45.537 58.3391 45.7871 58.1856 46.0445C58.1062 46.1781 58.0601 46.3307 57.987 46.4689C57.8895 46.6531 57.7856 46.8355 57.6736 47.0115C57.5725 47.1705 57.4804 47.3321 57.3928 47.5C57.2944 47.6906 57.1463 47.854 57.0244 48.0337C56.9152 48.1953 56.8149 48.3642 56.7066 48.5267C56.5016 48.8355 56.2994 49.1461 56.0844 49.4477C55.8614 49.7601 55.6257 50.0626 55.3937 50.3687C55.2926 50.5015 55.1896 50.6342 55.0831 50.7624C54.8989 50.9836 54.7201 51.2103 54.5232 51.4207C54.0537 51.9218 53.623 52.4573 53.1255 52.9349C52.7453 53.2997 52.3823 53.6808 51.9814 54.0239C51.6627 54.2966 51.3539 54.581 51.0351 54.8546L51.036 54.8411ZM55.5382 58.7075C55.3946 58.8493 55.3937 58.8466 55.2456 58.7012C54.5458 58.0141 53.8442 57.3287 53.1444 56.6407C53.0884 56.5856 53.0442 56.5179 52.9873 56.4465C53.1941 56.1476 53.4884 55.9237 53.762 55.6835C54.4591 55.0695 55.1219 54.4203 55.7215 53.7097C55.9002 53.4966 56.089 53.2916 56.2813 53.0902C56.3328 53.0361 56.4131 53.0081 56.4953 52.9584C57.2348 53.7042 57.9798 54.4555 58.7229 55.2077C58.8683 55.3548 58.8683 55.372 58.731 55.512C58.1757 56.0754 57.6213 56.6398 57.0614 57.2005C56.5567 57.7061 56.0465 58.2073 55.5382 58.7093V58.7075ZM71.4889 69.6812C71.4753 69.7101 71.4654 69.7417 71.46 69.7733C71.3796 70.2139 71.116 70.5408 70.8135 70.8514C70.5769 71.0952 70.2726 71.2243 69.9864 71.385C69.9403 71.4112 69.8762 71.4085 69.8211 71.4166C69.757 71.4266 69.6776 71.413 69.6297 71.4455C69.3823 71.6135 69.1096 71.5349 68.8459 71.5403C68.7854 71.5412 68.7249 71.5015 68.6635 71.4826C68.594 71.4609 68.5254 71.4284 68.455 71.423C68.1516 71.3968 67.9069 71.237 67.6739 71.0672C67.0436 70.6067 66.5524 69.9999 65.9944 69.4626C65.3154 68.8089 64.6526 68.1389 63.9862 67.4716C63.2982 66.7827 62.6146 66.0883 61.9284 65.3984C60.9071 64.3709 59.8868 63.3442 58.8637 62.3194C58.35 61.8038 57.8299 61.2945 57.3143 60.7816C57.2745 60.7419 57.2438 60.6931 57.2113 60.6516C57.2565 60.4105 57.4651 60.3003 57.6113 60.145C57.8687 59.8714 58.1495 59.6195 58.4159 59.3522C58.778 58.9893 59.1319 58.6181 59.494 58.256C59.8028 57.9463 60.1171 57.6429 60.4304 57.3377C60.5026 57.2673 60.5794 57.2023 60.6552 57.1337C61.3017 57.7703 61.9428 58.396 62.5785 59.0281C63.5429 59.9879 64.5036 60.9496 65.4635 61.9139C66.3989 62.8539 67.3263 63.802 68.2635 64.7402C68.8721 65.3497 69.4933 65.9465 70.1056 66.5533C70.3837 66.8296 70.6681 67.1023 70.92 67.4021C71.0735 67.5845 71.2153 67.7804 71.3291 68.0026C71.4293 68.1985 71.4898 68.4098 71.5367 68.6066C71.6216 68.9561 71.6541 69.3308 71.4916 69.683L71.4889 69.6812Z" fill="#01953F"/>
<path d="M49.3439 19.9482C49.3439 19.6628 49.3358 19.3775 49.3222 19.0922C49.3186 19.0055 49.287 18.9188 49.2626 18.8339C49.2409 18.759 49.2084 18.6867 49.1868 18.6109C49.1714 18.5567 49.1804 18.4917 49.1552 18.4438C49.0233 18.1901 48.8987 17.9301 48.7425 17.6917C48.5899 17.4605 48.4111 17.2492 48.2089 17.0524C48.0499 16.8971 47.8639 16.7887 47.6969 16.6506C47.5569 16.5332 47.3935 16.414 47.2219 16.3734C47.0034 16.321 46.8201 16.1503 46.5781 16.1855C46.5483 16.1901 46.5059 16.1819 46.4851 16.163C46.3569 16.0429 46.1971 16.0646 46.0445 16.06C45.8242 16.0537 45.6038 16.0537 45.3835 16.0537C36.5336 16.0537 27.6838 16.0537 18.8339 16.0537C18.6632 16.0537 18.4889 16.0736 18.321 16.0519C17.9761 16.0086 17.679 16.2135 17.3458 16.2208C17.2402 16.3372 17.0794 16.3228 16.9539 16.3878C16.8122 16.4609 16.6776 16.5503 16.5422 16.6361C16.4365 16.7038 16.3228 16.7643 16.2325 16.8483C15.9363 17.1237 15.6356 17.3946 15.4279 17.7504C15.2807 18.0014 15.1038 18.2371 15.0595 18.535C15.055 18.5666 15.0532 18.61 15.0324 18.6262C14.9123 18.7238 14.9367 18.861 14.9223 18.9874C14.9096 19.1003 14.9214 19.2231 14.8816 19.3251C14.8031 19.5301 14.7986 19.7387 14.7986 19.9509C14.7986 25.2521 14.7986 30.5543 14.7986 35.8556C14.7986 37.8375 14.7986 39.8195 14.8004 41.8015C14.8004 41.9306 14.8193 42.0607 14.8374 42.1889C14.8618 42.365 14.8852 42.5429 14.925 42.7162C14.9746 42.9329 15.0044 43.1659 15.1083 43.3573C15.2347 43.5885 15.3277 43.8395 15.4974 44.0517C15.6735 44.2711 15.8252 44.5077 16.0519 44.6847C16.2749 44.8589 16.497 45.0269 16.7426 45.1714C16.9918 45.3176 17.2564 45.4531 17.5237 45.5073C17.9246 45.5885 18.3282 45.7158 18.749 45.6689C18.8059 45.6626 18.8628 45.6689 18.9206 45.6689C21.7585 45.6689 24.5974 45.6689 27.4354 45.6689C27.5465 45.6689 27.6567 45.6806 27.7885 45.6888C27.7226 45.8919 27.6711 46.049 27.6205 46.207C27.6178 46.2152 27.616 46.2242 27.6097 46.2287C27.4508 46.3606 27.458 46.5718 27.374 46.7398C27.2711 46.9466 27.2034 47.1759 27.105 47.3908C27.0273 47.5615 26.9812 47.7457 26.9126 47.92C26.8512 48.0753 26.8097 48.2532 26.7302 48.3832C26.6273 48.5502 26.5966 48.7389 26.509 48.9078C26.4422 49.036 26.3961 49.1787 26.2905 49.3114C26.1875 49.3114 26.0738 49.3051 25.96 49.3123C25.4128 49.3475 24.8611 49.2356 24.3157 49.4207C24.0764 49.5019 23.9166 49.6509 23.7414 49.8035C23.6105 49.9182 23.5979 50.0825 23.5338 50.2243C23.4949 50.3101 23.4787 50.4067 23.4552 50.4988C23.3911 50.748 23.5256 50.9656 23.6214 51.1607C23.7866 51.4975 24.0728 51.734 24.4764 51.7647C24.639 51.7774 24.8024 51.7864 24.965 51.7864C29.728 51.7873 34.4911 51.7873 39.2542 51.7864C39.4005 51.7864 39.5468 51.7738 39.694 51.7693C39.8664 51.7638 40.0236 51.7232 40.1644 51.613C40.3531 51.4659 40.5527 51.3069 40.6222 51.0857C40.6981 50.8446 40.7676 50.6008 40.6945 50.311C40.5933 49.911 40.373 49.6365 40.0389 49.4658C39.8321 49.3602 39.573 49.3304 39.3355 49.3168C38.9292 49.2943 38.5201 49.3123 38.112 49.3087C38.01 49.3078 37.9079 49.2861 37.8212 49.2753C37.6921 48.9231 37.5756 48.5999 37.4546 48.2784C37.4014 48.1376 37.3391 48.0003 37.2795 47.8613C37.2027 47.6807 37.1206 47.5019 37.0492 47.3186C36.9806 47.1425 36.9517 46.9439 36.8506 46.7913C36.7693 46.6685 36.7874 46.5204 36.7052 46.4174C36.5752 46.2558 36.5887 46.04 36.4713 45.8748C36.4424 45.8341 36.4668 45.7547 36.4668 45.6671H36.8018C39.4854 45.6671 42.169 45.6671 44.8526 45.6671C45.1785 45.6671 45.5054 45.6653 45.8314 45.6617C45.9045 45.6617 45.9894 45.6752 46.049 45.6445C46.328 45.5027 46.6477 45.5551 46.9384 45.4206C47.1876 45.305 47.4594 45.2075 47.6815 45.0576C48.1457 44.7443 48.5502 44.3497 48.8346 43.8594C48.9881 43.5957 49.1678 43.3356 49.194 43.0142C49.1967 42.9826 49.2012 42.9447 49.2211 42.923C49.3267 42.8011 49.3249 42.653 49.3276 42.5067C49.3339 42.2539 49.343 42.0011 49.343 41.7482C49.3439 34.4804 49.3439 27.2134 49.343 19.9464L49.3439 19.9482ZM28.4603 42.4715C28.5226 42.653 28.5235 42.8553 28.5434 43.0494C28.5479 43.0937 28.5208 43.1406 28.5018 43.211H28.2337C25.0616 43.211 21.8904 43.2092 18.7192 43.2128C18.3508 43.2128 18.0158 43.0918 17.7341 42.8896C17.5408 42.7505 17.4126 42.5212 17.3593 42.2503C17.2826 41.853 17.2826 41.4584 17.2844 41.0602C17.2853 40.7812 17.3169 40.7505 17.5959 40.7505C21.1671 40.7505 24.7383 40.7505 28.3095 40.7505C28.3953 40.7505 28.4811 40.7694 28.5714 40.7803C28.5443 40.9428 28.5235 41.0611 28.5045 41.1794C28.4648 41.4259 28.4142 41.6715 28.3917 41.9198C28.3754 42.104 28.398 42.2855 28.4603 42.4706V42.4715ZM29.0427 49.2627C29.0887 49.1344 29.1276 49.0234 29.1691 48.9132C29.1799 48.8834 29.2079 48.8599 29.2152 48.8301C29.2811 48.5854 29.3822 48.357 29.4951 48.1303C29.5782 47.9642 29.5845 47.7556 29.682 47.6012C29.7849 47.4369 29.7985 47.2454 29.9104 47.0829C29.9935 46.9619 30.0188 46.7886 30.0883 46.6423C30.1687 46.4743 30.2048 46.2847 30.2707 46.1095C30.3186 45.9831 30.3836 45.8648 30.4603 45.7023C30.5226 45.6951 30.6256 45.6716 30.7276 45.6716C31.6486 45.6689 32.5705 45.6689 33.4916 45.6707C33.7263 45.6707 33.8022 45.7547 33.869 45.9858C33.925 46.18 34.0225 46.3624 34.1011 46.5502C34.1552 46.6811 34.2103 46.8111 34.2627 46.943C34.3187 47.0829 34.3701 47.2238 34.427 47.3637C34.5155 47.5841 34.6103 47.8017 34.6961 48.0238C34.7593 48.1872 34.8072 48.357 34.8722 48.5195C34.9453 48.7028 35.0329 48.8798 35.1088 49.0622C35.1359 49.1272 35.144 49.1985 35.1611 49.2663C34.948 49.3277 29.3118 49.3313 29.0418 49.2636L29.0427 49.2627ZM33.2974 42.0562C33.3065 42.4652 33.0952 42.7334 32.7755 42.9654C32.5976 43.0937 32.3918 43.1072 32.2076 43.1939C32.1191 43.2354 31.9782 43.1677 31.8617 43.1433C31.8157 43.1334 31.7741 43.1027 31.7272 43.0918C31.3182 42.9952 31.0762 42.7307 30.9597 42.337C30.9443 42.2837 30.9181 42.2322 30.8938 42.1817C30.8251 42.0417 30.8324 41.8999 30.8784 41.7564C30.9109 41.6571 30.9353 41.5541 30.9777 41.4584C31.0735 41.2444 31.2197 41.0665 31.4103 40.9293C31.7633 40.6755 32.1642 40.7297 32.5498 40.792C32.7277 40.82 32.8631 40.9853 32.9986 41.1135C33.2333 41.3365 33.3381 41.6083 33.2974 41.8864C33.2974 41.9731 33.2974 42.0137 33.2974 42.0544V42.0562ZM46.8842 42.0507C46.8924 42.4453 46.6738 42.7162 46.3903 42.9329C46.142 43.1226 45.844 43.2128 45.5244 43.2128C42.3135 43.2128 39.1016 43.2128 35.8898 43.2128H35.6063C35.6144 43.1045 35.5937 43.007 35.6316 42.9709C35.749 42.8571 35.7237 42.718 35.7381 42.5844C35.7842 42.1537 35.7769 41.723 35.7381 41.2914C35.7255 41.1532 35.73 41.0141 35.6171 40.9067C35.5991 40.8895 35.6063 40.8462 35.5991 40.7983C35.6578 40.783 35.7083 40.7613 35.7598 40.7568C35.8492 40.7496 35.9386 40.7523 36.0289 40.7523H46.8589C46.8716 40.8417 46.886 40.8968 46.886 40.9518C46.886 41.3184 46.877 41.6859 46.8842 42.0525V42.0507ZM46.4869 38.2692H32.1245C27.3451 38.2692 22.5658 38.2673 17.7864 38.2728C17.363 38.2728 17.2808 38.1924 17.2817 37.768C17.2871 31.8789 17.2835 25.9908 17.2898 20.1026C17.2898 19.8299 17.3223 19.5482 17.3973 19.2863C17.4505 19.0994 17.5833 18.9278 17.7485 18.8014C18.0077 18.6028 18.2921 18.5052 18.628 18.5052C27.616 18.5107 36.6041 18.5107 45.5912 18.5034C45.947 18.5034 46.2485 18.6154 46.4987 18.8267C46.7009 18.9974 46.8607 19.233 46.8752 19.5247C46.8833 19.6881 46.8878 19.8506 46.8878 20.0141C46.8878 25.9682 46.8878 31.9223 46.8878 37.8755C46.8878 38.2655 46.8842 38.2692 46.4878 38.2692H46.4869Z" fill="#01953F"/>
<path d="M59.2547 32.5399C59.2159 33.246 59.2087 33.9576 59.1157 34.6565C59.0651 35.0357 59.0759 35.424 58.9847 35.7897C58.9026 36.1183 58.9387 36.4642 58.8348 36.7694C58.7292 37.0791 58.7852 37.4186 58.6118 37.7075C58.5775 37.7644 58.5883 37.8502 58.582 37.9233C58.5703 38.0759 58.5838 38.2304 58.4691 38.3613C58.433 38.4028 58.4439 38.4859 58.4375 38.5509C58.4249 38.68 58.4285 38.811 58.3301 38.9184C58.3021 38.9491 58.3012 39.0096 58.2967 39.0575C58.2813 39.2101 58.2904 39.3663 58.1748 39.4945C58.1423 39.5306 58.1576 39.6047 58.1414 39.6588C58.1143 39.7482 58.0791 39.8358 58.0493 39.9243C58.0312 39.9776 58.0095 40.0308 58.0032 40.0859C57.9897 40.1979 57.9987 40.3153 57.8967 40.3983C57.8858 40.4074 57.8768 40.4281 57.8777 40.4426C57.8985 40.6801 57.763 40.8805 57.6845 41.0819C57.6077 41.2751 57.5707 41.4846 57.4623 41.6733C57.3802 41.8169 57.3513 42.0029 57.2763 42.1627C57.1906 42.346 57.1138 42.5347 57.0334 42.7208C57.0172 42.7578 56.9955 42.7939 56.9865 42.8327C56.9368 43.0404 56.833 43.2219 56.7291 43.407C56.656 43.537 56.6154 43.6842 56.5495 43.8188C56.4285 44.0635 56.3003 44.3054 56.1747 44.5474C56.1133 44.6657 56.0537 44.7858 55.9887 44.9023C55.8578 45.1362 55.7224 45.3673 55.5914 45.6003C55.4262 45.8928 55.2862 46.2035 55.0921 46.4753C54.9666 46.6504 54.8925 46.8617 54.7201 47.0089C54.6397 47.0775 54.6018 47.1958 54.5404 47.2888C54.3706 47.5471 54.181 47.7918 54.004 48.0428C53.7982 48.3335 53.5887 48.6216 53.362 48.8943C53.0433 49.2789 52.7354 49.6717 52.3977 50.0419C51.9218 50.5629 51.4324 51.0704 50.9276 51.5643C50.5303 51.9526 50.1105 52.3174 49.696 52.6876C49.4775 52.8826 49.2527 53.0714 49.0215 53.251C48.7199 53.4858 48.4111 53.7097 48.1032 53.9364C47.8793 54.1016 47.6562 54.2678 47.4269 54.4267C47.2382 54.5576 47.0422 54.6777 46.8499 54.8023C46.6657 54.9206 46.4878 55.0524 46.2946 55.1536C46.0788 55.2664 45.8982 55.4362 45.6652 55.5193C45.556 55.5581 45.4711 55.6403 45.3645 55.6917C45.053 55.8434 44.7632 56.0385 44.4553 56.1992C44.2115 56.3265 43.937 56.4005 43.7094 56.5504C43.5604 56.648 43.3834 56.6588 43.2426 56.7807C43.1261 56.8818 42.9455 56.9098 42.7938 56.9694C42.6385 57.0299 42.4787 57.0787 42.3306 57.1518C42.1175 57.2575 41.9017 57.3496 41.6705 57.4146C41.4954 57.4633 41.331 57.55 41.1622 57.6204C41.1324 57.6331 41.1053 57.6539 41.0746 57.6629C40.8507 57.7252 40.624 57.7785 40.4028 57.8489C40.1825 57.9193 39.9685 58.0096 39.75 58.0846C39.6895 58.1053 39.6199 58.0999 39.5576 58.1153C39.4809 58.1351 39.4068 58.164 39.3328 58.192C39.3102 58.2001 39.2922 58.2218 39.2696 58.2263C39.0032 58.2859 38.7359 58.3419 38.4705 58.4042C38.363 58.4295 38.2583 58.4674 38.1517 58.499C38.1364 58.5035 38.121 58.518 38.1066 58.5171C37.7761 58.4963 37.4826 58.6778 37.1576 58.6904C36.9968 58.6968 36.8397 58.6959 36.688 58.7907C36.6013 58.8449 36.4659 58.8232 36.353 58.8331C36.121 58.8539 35.8799 58.8151 35.6641 58.9514C35.6153 58.9821 35.5368 58.9704 35.4717 58.9731C35.2433 58.9812 35.0148 58.9857 34.7873 58.9956C34.706 58.9993 34.6176 58.9929 34.5453 59.0227C34.2717 59.1356 33.9855 59.1203 33.702 59.1212C32.576 59.123 31.4509 59.1212 30.3249 59.1139C30.1741 59.113 30.0233 59.0661 29.8716 59.0417C29.775 59.0263 29.6793 59.0038 29.5827 58.9993C29.3542 58.9875 29.1258 58.992 28.8982 58.974C28.7709 58.964 28.6472 58.9198 28.5208 58.8972C28.3935 58.8747 28.2653 58.8557 28.1361 58.8439C27.9194 58.8241 27.6973 58.8566 27.4959 58.7293C27.4399 58.6941 27.3542 58.704 27.281 58.6977C27.104 58.6832 26.9235 58.6977 26.7636 58.5857C26.7158 58.5523 26.6381 58.5568 26.574 58.5532C26.3961 58.5433 26.2173 58.5532 26.0584 58.443C26.016 58.4132 25.9492 58.415 25.8932 58.4087C25.7641 58.3961 25.6322 58.4024 25.523 58.3112C25.5058 58.2968 25.4769 58.2868 25.4543 58.2877C25.1627 58.3049 24.9081 58.1559 24.6327 58.0981C24.4015 58.0503 24.1812 57.9482 23.9554 57.8724C23.7812 57.8137 23.606 57.7559 23.4308 57.7008C23.1735 57.6195 22.9143 57.5473 22.6687 57.4317C22.4963 57.3514 22.303 57.3161 22.1251 57.2448C21.9364 57.169 21.7567 57.0705 21.5689 56.9902C21.4624 56.945 21.3495 56.9486 21.2439 56.8593C21.1256 56.759 20.945 56.7328 20.7933 56.6705C20.6624 56.6173 20.5287 56.5658 20.4041 56.4999C20.089 56.3319 19.7811 56.1504 19.465 55.9852C19.2294 55.8615 18.9693 55.7784 18.7508 55.6321C18.5865 55.5229 18.4167 55.4281 18.2469 55.3305C18.0348 55.2086 17.8316 55.0714 17.6266 54.936C17.2483 54.6858 16.8708 54.433 16.4943 54.1793C16.2929 54.0438 16.0934 53.9075 15.8965 53.7666C15.7719 53.6763 15.6537 53.5761 15.5327 53.4795C15.3557 53.3386 15.1688 53.2086 15.0053 53.0542C14.6008 52.6713 14.1358 52.3598 13.7511 51.9517C13.4044 51.5842 13.0125 51.2591 12.664 50.8934C12.2432 50.451 11.8071 50.0212 11.4414 49.5281C11.2951 49.3313 11.1163 49.1597 10.9637 48.9674C10.7389 48.6848 10.5221 48.3949 10.3036 48.1069C10.1239 47.8694 9.93974 47.6365 9.77269 47.3899C9.64086 47.1958 9.53883 46.9818 9.41151 46.7841C9.29503 46.6035 9.15327 46.4391 9.0404 46.2558C8.91669 46.0554 8.81737 45.8414 8.70179 45.6355C8.58711 45.4314 8.46251 45.2328 8.34964 45.0269C8.22142 44.7912 8.10313 44.5501 7.97762 44.3136C7.90538 44.1781 7.82231 44.0481 7.75007 43.9118C7.68777 43.7926 7.63088 43.6698 7.57851 43.5452C7.46384 43.2734 7.35909 42.998 7.24171 42.728C7.12162 42.4517 6.98346 42.1835 6.86879 41.9054C6.79204 41.7212 6.74869 41.5225 6.68007 41.3347C6.60693 41.1352 6.51935 40.9401 6.44079 40.7424C6.42544 40.7054 6.41641 40.6647 6.41189 40.625C6.39745 40.5049 6.39203 40.3857 6.29722 40.2882C6.26381 40.2539 6.27103 40.1798 6.26381 40.1239C6.25116 40.0281 6.26381 39.9252 6.16719 39.8593C6.15545 39.8512 6.14732 39.8322 6.14371 39.8177C6.08412 39.5685 6.02904 39.3184 5.96493 39.071C5.89269 38.7929 5.81323 38.5175 5.73558 38.2412C5.72926 38.2177 5.70578 38.1969 5.70488 38.1753C5.69314 37.8917 5.61819 37.6236 5.54505 37.3509C5.49358 37.1585 5.51436 36.9545 5.42587 36.7585C5.36627 36.6258 5.40058 36.4533 5.37981 36.3007C5.36266 36.1743 5.32563 36.0497 5.29855 35.9251C5.28139 35.8465 5.25701 35.7671 5.25249 35.6876C5.23985 35.4926 5.24527 35.2957 5.22812 35.1007C5.21638 34.9653 5.17665 34.8316 5.15407 34.6962C5.13421 34.5761 5.10802 34.4551 5.10712 34.335C5.1026 33.5765 5.10531 32.818 5.10531 32.0595H5.06648C5.08093 31.2929 5.09177 30.5263 5.11163 29.7597C5.11524 29.6234 5.15949 29.4888 5.17755 29.3516C5.20284 29.1583 5.22631 28.9642 5.23805 28.7701C5.2525 28.5425 5.25882 28.3204 5.34099 28.0983C5.39516 27.9511 5.36898 27.7759 5.39155 27.6152C5.40871 27.4978 5.45115 27.3831 5.47372 27.2658C5.4981 27.1393 5.51616 27.0111 5.5297 26.882C5.54505 26.7375 5.52338 26.5858 5.63264 26.4639C5.64257 26.4522 5.65431 26.4341 5.65341 26.4206C5.62542 26.1045 5.81233 25.831 5.82858 25.523C5.8331 25.4309 5.88186 25.3425 5.90895 25.2513C5.92791 25.189 5.95048 25.1276 5.95951 25.0643C5.97847 24.9298 5.96403 24.7889 6.07961 24.6806C6.1085 24.6535 6.10489 24.5885 6.1076 24.5397C6.11572 24.4178 6.12385 24.2986 6.20963 24.1975C6.23762 24.1641 6.24485 24.1072 6.25027 24.0603C6.26652 23.932 6.25839 23.7975 6.37216 23.7009C6.38751 23.6882 6.38841 23.6557 6.39293 23.6323C6.44981 23.3487 6.54914 23.0815 6.66382 22.816C6.74237 22.6336 6.7821 22.4349 6.85615 22.2507C6.97172 21.9645 7.10265 21.6846 7.22455 21.401C7.28957 21.2484 7.34465 21.0922 7.41237 20.9405C7.4828 20.7825 7.56406 20.6299 7.63991 20.4737C7.70583 20.3374 7.76814 20.1992 7.83586 20.0638C7.96408 19.8091 8.09591 19.5563 8.22503 19.3026C8.29546 19.1635 8.35415 19.0172 8.43361 18.8827C8.59976 18.6019 8.78667 18.3337 8.94378 18.0484C9.0422 17.8696 9.15417 17.7007 9.26704 17.5319C9.43499 17.2791 9.58759 17.0163 9.75735 16.7653C9.92891 16.5115 10.1095 16.2623 10.2946 16.0176C10.6332 15.5698 10.9673 15.1174 11.324 14.6849C11.7005 14.2289 12.087 13.7783 12.4978 13.3539C12.9737 12.8636 13.4649 12.385 13.9796 11.9363C14.4121 11.5597 14.8374 11.1751 15.3006 10.8301C15.6871 10.543 16.0618 10.2405 16.4573 9.96239C16.7444 9.76013 17.0397 9.57051 17.3277 9.37096C17.7016 9.11271 18.088 8.88246 18.4808 8.65762C18.7698 8.49328 19.0443 8.30457 19.3359 8.14565C19.5689 8.01923 19.8352 7.9488 20.0538 7.80252C20.2813 7.65083 20.5468 7.58581 20.7689 7.42328C20.9043 7.32486 21.0949 7.30499 21.2556 7.23817C21.4199 7.16865 21.5789 7.08467 21.7396 7.00611C21.7603 6.99618 21.7793 6.97812 21.801 6.9709C21.9906 6.91221 22.1856 6.86435 22.3708 6.79392C22.5459 6.7271 22.7103 6.63319 22.8809 6.55554C22.9243 6.53567 22.9748 6.53297 23.02 6.51761C23.0949 6.49233 23.1699 6.46524 23.2439 6.43635C23.2665 6.42732 23.2854 6.39842 23.3062 6.39933C23.5401 6.40926 23.7297 6.26388 23.9482 6.22145C24.0177 6.2079 24.0828 6.17449 24.1487 6.1465C24.1776 6.13386 24.2019 6.09864 24.2299 6.09774C24.4196 6.09142 24.5866 6.01738 24.7618 5.95688C24.918 5.9036 25.085 5.88374 25.2476 5.82685C25.5185 5.73114 25.8128 5.70315 26.0963 5.64265C26.1893 5.62278 26.2796 5.59028 26.3708 5.56319C26.4015 5.55416 26.4313 5.53881 26.4629 5.53339C26.8052 5.4747 27.1483 5.41872 27.4905 5.35732C27.6169 5.33474 27.7397 5.29411 27.8652 5.27153C27.9935 5.24896 28.1226 5.23542 28.2526 5.22368C28.5027 5.2011 28.7528 5.21013 28.9984 5.11803C29.1375 5.06656 29.3046 5.08823 29.459 5.08011C29.7524 5.06476 30.054 5.09275 30.3366 5.02954C30.9109 4.90223 31.4879 4.95911 32.064 4.94105C32.4712 4.92841 32.8171 5.109 33.069 5.4124C33.18 5.54603 33.3083 5.71127 33.2893 5.92618C33.2767 6.06343 33.2875 6.20339 33.2938 6.34154C33.3101 6.73252 33.0419 6.96368 32.8089 7.2147C32.604 7.23998 32.4577 7.41967 32.2256 7.3998C31.9267 7.37452 31.6224 7.3998 31.3209 7.40432C31.0771 7.40793 30.8351 7.3998 30.5958 7.48107C30.4757 7.5217 30.3384 7.51628 30.2084 7.5217C29.9393 7.53254 29.6703 7.53705 29.4012 7.54518C29.3362 7.54699 29.2612 7.53705 29.2079 7.56504C28.9488 7.69958 28.6671 7.65895 28.3944 7.68694C28.2761 7.69958 28.1632 7.74744 28.0458 7.77002C27.9266 7.79259 27.8056 7.80975 27.6847 7.82058C27.523 7.83503 27.3569 7.82148 27.216 7.92623C27.2034 7.93526 27.1853 7.94429 27.1709 7.94338C26.8557 7.92171 26.5794 8.09959 26.2706 8.11856C26.1785 8.12397 26.0891 8.17002 25.9979 8.19892C25.9672 8.20885 25.9374 8.2233 25.9058 8.23143C25.6476 8.29102 25.3857 8.33978 25.1311 8.41292C24.909 8.47613 24.6941 8.56642 24.4746 8.64317C24.4295 8.65943 24.3825 8.67117 24.3356 8.6802C24.1071 8.72715 23.8931 8.80932 23.6909 8.92399C23.6629 8.93934 23.6304 8.94566 23.5997 8.9565C23.2845 9.06395 22.9667 9.16237 22.6561 9.28157C22.5053 9.33935 22.378 9.46035 22.2254 9.51001C22.0728 9.55968 21.9274 9.61114 21.7856 9.6879C21.6168 9.77909 21.429 9.83056 21.2709 9.95066C21.1797 10.0193 21.0235 9.97142 20.9612 10.1078C20.61 10.1926 20.3418 10.4419 20.0185 10.5854C19.7422 10.7082 19.493 10.8924 19.2339 11.0514C19.019 11.1823 18.7932 11.2997 18.5946 11.4514C18.228 11.7304 17.8406 11.9805 17.4704 12.2532C17.1182 12.5123 16.7733 12.7841 16.4266 13.0496C15.9652 13.4045 15.5272 13.7954 15.1119 14.2036C14.5809 14.7255 14.078 15.2754 13.5732 15.8226C13.3186 16.098 13.0811 16.3887 12.8464 16.6813C12.617 16.9684 12.4003 17.2655 12.1809 17.5608C12.0039 17.7983 11.8233 18.033 11.6581 18.2786C11.5271 18.4728 11.4233 18.6841 11.2969 18.8818C11.1795 19.0633 11.0368 19.2294 10.9276 19.4154C10.8617 19.5283 10.8084 19.6484 10.7389 19.7622C10.6106 19.9708 10.505 20.192 10.3885 20.4078C10.3172 20.5387 10.2368 20.6642 10.17 20.797C10.0355 21.0633 9.91988 21.3378 9.76547 21.5961C9.6806 21.7379 9.64448 21.9067 9.57856 22.0602C9.50633 22.2282 9.42596 22.3925 9.34831 22.5586C9.33838 22.5794 9.3158 22.5957 9.30948 22.6173C9.24988 22.8051 9.22731 23.0173 9.12347 23.1763C9.01873 23.3352 9.03408 23.5329 8.90767 23.6756C8.87426 23.7135 8.87696 23.7821 8.85981 23.8345C8.83272 23.9176 8.80111 23.9989 8.77312 24.0819C8.75235 24.1424 8.7361 24.2047 8.71534 24.2643C8.68734 24.3474 8.65574 24.4287 8.62865 24.5117C8.60608 24.5804 8.58982 24.6499 8.56815 24.7194C8.53926 24.8106 8.50766 24.9009 8.47876 24.9921C8.4598 25.0526 8.43451 25.1122 8.42548 25.1745C8.40923 25.2946 8.41555 25.4147 8.31803 25.514C8.28462 25.5474 8.28643 25.6206 8.28011 25.6775C8.26476 25.8138 8.27379 25.9547 8.16543 26.0666C8.14196 26.091 8.14376 26.1434 8.13925 26.184C8.12029 26.3682 8.08326 26.5416 8.02457 26.7222C7.94511 26.9687 7.92976 27.2387 7.85753 27.4969C7.79432 27.7254 7.82502 27.9728 7.72569 28.2066C7.6652 28.3475 7.6968 28.5281 7.68777 28.6906C7.67964 28.8522 7.67151 29.0094 7.6056 29.1665C7.55774 29.2821 7.56045 29.422 7.55413 29.5511C7.53878 29.869 7.57309 30.1949 7.51169 30.5028C7.42772 30.9236 7.43223 31.3444 7.4214 31.7661C7.41056 32.2058 7.37805 32.6537 7.44126 33.0853C7.52885 33.6849 7.48461 34.2917 7.58213 34.8831C7.64082 35.237 7.63901 35.5973 7.71757 35.9405C7.78078 36.2186 7.79251 36.503 7.86294 36.7712C7.92705 37.015 7.98755 37.2533 8.002 37.5044C8.19613 37.7256 8.05166 38.0525 8.24128 38.2782C8.27198 38.3152 8.26115 38.3884 8.26837 38.4444C8.28372 38.5717 8.27108 38.7017 8.37492 38.8101C8.41194 38.8489 8.3993 38.9347 8.41646 38.997C8.44174 39.0882 8.47425 39.1776 8.50585 39.2669C8.51398 39.2895 8.53926 39.3085 8.54107 39.3302C8.55732 39.5171 8.644 39.6841 8.68915 39.8593C8.75777 40.1239 8.86522 40.3676 8.96545 40.6169C9.03859 40.7993 9.08193 40.9934 9.15236 41.1776C9.21647 41.3447 9.29954 41.5045 9.37178 41.6688C9.42325 41.7853 9.47021 41.9036 9.52077 42.0201C9.59211 42.188 9.66073 42.3569 9.73658 42.523C9.8025 42.6648 9.8657 42.8101 9.95058 42.9402C10.021 43.0467 10.0391 43.1695 10.1131 43.2806C10.2955 43.5551 10.4201 43.8666 10.5808 44.1565C10.7506 44.4626 10.9483 44.7524 11.1109 45.0621C11.2635 45.3538 11.4594 45.6201 11.6373 45.8919C11.7917 46.1276 11.9362 46.3795 12.1475 46.5836C12.2838 46.7163 12.3561 46.9123 12.4771 47.064C12.7804 47.4405 13.0929 47.8098 13.4053 48.1791C13.6193 48.432 13.8297 48.6875 14.0572 48.9286C14.3236 49.2103 14.6062 49.4758 14.8798 49.7503C15.0947 49.9661 15.3006 50.1909 15.5227 50.3995C15.7123 50.5765 15.9182 50.7354 16.1178 50.9015C16.5006 51.2212 16.8763 51.549 17.2699 51.8551C17.5047 52.0375 17.7684 52.1837 18.0158 52.3499C18.0664 52.3833 18.0998 52.4465 18.1521 52.4745C18.4113 52.6136 18.6343 52.8077 18.8989 52.9404C19.0849 53.0334 19.2429 53.1797 19.4199 53.2935C19.5364 53.3684 19.6637 53.4271 19.7856 53.4957C19.8524 53.5346 19.9138 53.5842 19.9824 53.6194C20.1964 53.7305 20.4285 53.8145 20.6226 53.9526C20.7508 54.0438 20.9143 54.0565 21.0262 54.182C21.1003 54.2642 21.2357 54.2705 21.3414 54.3346C21.5689 54.4718 21.8308 54.5513 22.0764 54.6596C22.2507 54.7364 22.4186 54.8267 22.5938 54.9034C22.7175 54.9576 22.8502 54.9739 22.9748 55.0461C23.1365 55.14 23.3496 55.1463 23.5085 55.243C23.6909 55.354 23.9148 55.3315 24.0828 55.4696C24.1279 55.5066 24.2074 55.4976 24.2679 55.5175C24.3419 55.5418 24.4132 55.5743 24.4846 55.605C24.5062 55.6141 24.5252 55.6376 24.546 55.6385C24.7509 55.6484 24.936 55.7161 25.1257 55.7911C25.2494 55.8398 25.3993 55.8154 25.5085 55.9238C25.532 55.9473 25.5853 55.9437 25.6259 55.9473C25.7866 55.9617 25.9483 55.9572 26.09 56.0656C26.1406 56.1044 26.2336 56.0818 26.304 56.099C26.4124 56.1251 26.518 56.1631 26.6255 56.192C26.7031 56.2118 26.7817 56.2326 26.8603 56.2389C27.03 56.2525 27.2007 56.2452 27.3551 56.3446C27.4047 56.3771 27.4806 56.3735 27.5447 56.3789C27.7379 56.396 27.9266 56.4015 28.1136 56.4899C28.2373 56.5486 28.4007 56.5243 28.547 56.5342C28.7411 56.5477 28.938 56.5288 29.1176 56.638C29.1682 56.6687 29.2441 56.6633 29.3091 56.666C29.5131 56.6741 29.7172 56.6696 29.9204 56.6859C30.1542 56.7039 30.3872 56.741 30.6202 56.7672C30.7502 56.7816 30.8802 56.8024 31.0093 56.8033C31.7759 56.8051 32.5453 56.8421 33.3083 56.7888C33.8834 56.7491 34.4559 56.6714 35.0338 56.6624C35.0745 56.6624 35.1205 56.6624 35.1539 56.6443C35.3869 56.5152 35.6442 56.5504 35.8934 56.5252C36.0198 56.5125 36.1435 56.4692 36.27 56.4448C36.381 56.4231 36.4921 56.4024 36.604 56.3897C36.7648 56.3726 36.9336 56.3969 37.07 56.2796C37.0808 56.2696 37.0998 56.2651 37.116 56.2642C37.367 56.2507 37.6163 56.2308 37.8438 56.1071C38.1463 56.1513 38.3937 55.9166 38.6917 55.9391C38.8831 55.7513 39.1856 55.8714 39.3852 55.6917C39.4258 55.6556 39.5116 55.6737 39.5739 55.6565C39.6479 55.6348 39.7193 55.6032 39.7915 55.5734C39.8132 55.5644 39.833 55.5346 39.852 55.5373C40.0813 55.5617 40.252 55.3874 40.4687 55.3585C40.615 55.3387 40.7558 55.2682 40.8949 55.2105C41.0692 55.1373 41.2371 55.0497 41.4114 54.9766C41.573 54.9089 41.7419 54.8574 41.9044 54.7924C42.0534 54.7328 42.1988 54.6669 42.3441 54.6001C42.5148 54.5224 42.6954 54.4574 42.8507 54.3554C42.9871 54.2651 43.1568 54.247 43.2787 54.1233C43.3573 54.0438 43.5216 54.0899 43.5839 53.9571C43.927 53.8687 44.2051 53.6465 44.5031 53.4759C44.7758 53.3197 45.0837 53.2023 45.3022 52.9576C45.5189 52.9097 45.6625 52.7409 45.844 52.6343C45.9298 52.5838 46.0192 52.5359 46.0968 52.4745C46.5095 52.1503 46.942 51.8524 47.3601 51.5354C47.7655 51.2275 48.1402 50.8817 48.5429 50.5711C48.8897 50.3029 49.1768 49.9571 49.4865 49.6419C49.8342 49.2889 50.1818 48.9358 50.5204 48.5737C50.7091 48.3724 50.8825 48.1556 51.0604 47.9444C51.3331 47.6202 51.6139 47.3015 51.8731 46.9665C52.0582 46.7263 52.2126 46.4626 52.3823 46.2107C52.5349 45.9849 52.6929 45.7628 52.8455 45.5362C52.9729 45.3456 53.0993 45.1533 53.2194 44.9574C53.3376 44.7641 53.4505 44.5664 53.5625 44.3687C53.6474 44.2179 53.7061 44.0481 53.8126 43.9154C53.9164 43.7853 53.9264 43.6129 54.0546 43.4946C54.1277 43.4269 54.1169 43.2986 54.2027 43.2038C54.3011 43.0955 54.3228 42.9203 54.3878 42.7785C54.4555 42.6305 54.5368 42.4896 54.609 42.3433C54.6686 42.2223 54.7264 42.1013 54.777 41.9767C54.8447 41.8097 54.9025 41.6381 54.9693 41.4711C55.0424 41.2896 55.1219 41.1108 55.1968 40.9302C55.2185 40.8796 55.2329 40.8264 55.2519 40.774C55.279 40.6999 55.307 40.6259 55.335 40.5519C55.3549 40.4995 55.3846 40.4489 55.3937 40.3956C55.4108 40.3008 55.4099 40.2051 55.4957 40.1329C55.5273 40.1067 55.5345 40.0435 55.5391 39.9965C55.5508 39.8837 55.5517 39.769 55.642 39.6814C55.6528 39.6715 55.6573 39.6525 55.661 39.6372C55.7205 39.4042 55.7756 39.1703 55.8406 38.9383C55.9147 38.6773 55.9978 38.4191 56.0772 38.1599C56.0817 38.1446 56.0899 38.1301 56.0935 38.1139C56.1513 37.8294 56.2063 37.5441 56.2659 37.2597C56.2876 37.1585 56.3174 37.0583 56.3445 36.9581C56.3526 36.9265 56.3698 36.8967 56.3743 36.8651C56.4339 36.4651 56.4908 36.0642 56.5522 35.6642C56.5802 35.4809 56.6217 35.2994 56.6524 35.1161C56.6659 35.0357 56.6723 34.9544 56.6768 34.8732C56.6948 34.5472 56.6795 34.2167 56.7337 33.8971C56.8944 32.9562 56.8068 32.0117 56.8167 31.0681C56.8194 30.8333 56.8041 30.6022 56.749 30.3674C56.6912 30.1254 56.7066 29.8654 56.6921 29.6125C56.6786 29.3787 56.6849 29.1457 56.5991 28.9155C56.5449 28.7683 56.5612 28.594 56.5486 28.4315C56.5359 28.2707 56.5495 28.1046 56.4528 27.961C56.4402 27.9421 56.433 27.9141 56.4339 27.8906C56.4438 27.5285 56.2957 27.1926 56.256 26.8387C56.2461 26.7447 56.2054 26.6535 56.1774 26.5614C56.1684 26.5307 56.1522 26.5009 56.1458 26.4693C56.0871 26.1939 56.0411 25.9149 55.9698 25.6422C55.9029 25.3876 55.8099 25.1411 55.7296 24.8901C55.7169 24.8521 55.7016 24.8133 55.698 24.7745C55.6853 24.6517 55.623 24.546 55.5887 24.4341C55.5327 24.2517 55.4704 24.0711 55.4072 23.8914C55.3413 23.7045 55.3133 23.4995 55.2203 23.328C55.1029 23.1094 55.0424 22.8747 54.9521 22.6489C54.8916 22.4972 54.8086 22.3546 54.7381 22.2065C54.6677 22.0566 54.5928 21.9076 54.535 21.7532C54.4663 21.5708 54.3833 21.4001 54.2776 21.2358C54.1982 21.1121 54.1512 20.9685 54.0898 20.834C54.0284 20.6985 53.976 20.5586 53.9029 20.4304C53.7873 20.2254 53.6546 20.0313 53.5345 19.8281C53.4189 19.6322 53.3169 19.429 53.1986 19.234C53.0713 19.0245 52.9358 18.8204 52.7995 18.6172C52.5349 18.2235 52.2722 17.8299 51.9859 17.4506C51.7701 17.1644 51.5462 16.8836 51.3367 16.5919C51.194 16.3942 51.0143 16.2235 50.8617 16.0321C50.4084 15.4623 49.8974 14.9485 49.3683 14.4501C49.0558 14.1557 48.7533 13.8523 48.44 13.5598C48.2901 13.4198 48.1258 13.2961 47.9669 13.167C47.6373 12.8988 47.3131 12.6252 46.9763 12.367C46.7325 12.1801 46.4725 12.0157 46.2196 11.8423C46.0065 11.697 45.7934 11.5516 45.5785 11.4089C45.3754 11.2735 45.1722 11.1371 44.9654 11.0089C44.6675 10.8247 44.3677 10.6432 44.0652 10.4671C43.937 10.3931 43.7961 10.3425 43.6643 10.2739C43.5216 10.1999 43.3853 10.1132 43.2426 10.04C43.1189 9.97684 42.9871 9.9335 42.8652 9.86036C42.6882 9.75381 42.4859 9.6888 42.3017 9.58947C42.1419 9.50369 41.9622 9.44771 41.7861 9.39895C41.6633 9.36464 41.5839 9.26531 41.4475 9.24003C41.2669 9.20752 41.1008 9.09556 40.9283 9.0179C40.8985 9.00436 40.8687 8.99262 40.8389 8.98178C40.5906 8.89329 40.3441 8.80029 40.094 8.71902C39.8881 8.6513 39.6759 8.60074 39.4691 8.53753C39.2253 8.46258 38.9824 8.38222 38.7395 8.30457C38.7088 8.29463 38.6781 8.2829 38.6465 8.27567C38.3964 8.21698 38.1346 8.18808 37.898 8.09508C37.5901 7.97408 37.3228 7.79891 37.1693 7.46301C37.0772 7.26075 37.0465 7.06932 37.0438 6.85984C37.0375 6.46073 37.2488 6.17178 37.5359 5.93701C37.7553 5.75733 38.0316 5.65168 38.3133 5.67967C38.5797 5.70676 38.8389 5.8097 39.1007 5.88013C39.1161 5.88464 39.1287 5.89728 39.145 5.9009C39.3933 5.96049 39.6434 6.01647 39.8908 6.07787C39.9658 6.09684 40.0371 6.13025 40.1102 6.15914C40.1319 6.16817 40.1518 6.19616 40.1716 6.19526C40.4145 6.18442 40.6096 6.35057 40.8425 6.37675C40.9048 6.38398 40.9635 6.41648 41.024 6.43906C41.0908 6.46344 41.1568 6.48962 41.2227 6.514C41.2814 6.53658 41.3401 6.55825 41.3988 6.58082C41.4656 6.6061 41.5306 6.63951 41.5992 6.65577C41.685 6.67473 41.7762 6.6657 41.8331 6.7587C41.8484 6.78489 41.9053 6.7867 41.9441 6.79843C42.1636 6.86074 42.3776 6.93297 42.5726 7.05939C42.6764 7.12711 42.8101 7.11898 42.9257 7.19844C43.071 7.29867 43.2616 7.33118 43.4304 7.3989C43.5604 7.45127 43.6959 7.49823 43.8115 7.57498C43.9695 7.67972 44.1392 7.75286 44.309 7.83051C44.4489 7.89462 44.5808 7.9777 44.7162 8.05174C44.8327 8.11494 44.9456 8.19079 45.0684 8.23865C45.314 8.33527 45.5235 8.49058 45.7474 8.62331C45.9506 8.7434 46.1673 8.84273 46.3632 8.97456C46.6928 9.19669 47.0431 9.38541 47.3547 9.63643C47.5352 9.7818 47.7547 9.87661 47.9488 10.0075C48.0815 10.0969 48.1971 10.2107 48.3235 10.3091C48.6251 10.5439 48.9366 10.7669 49.2292 11.0125C49.65 11.3656 50.0635 11.7277 50.4708 12.0961C50.8039 12.3977 51.1371 12.702 51.446 13.0279C51.8604 13.4641 52.2902 13.8866 52.6667 14.3589C52.9747 14.7445 53.3015 15.1156 53.6139 15.4975C53.7286 15.6375 53.8289 15.7901 53.9363 15.9364C54.1178 16.1856 54.3101 16.4285 54.4781 16.6867C54.7038 17.0325 54.9061 17.3928 55.1255 17.7414C55.2411 17.9247 55.3819 18.0926 55.4948 18.2768C55.5797 18.4159 55.6312 18.5757 55.7106 18.7202C55.8136 18.9053 55.9327 19.0814 56.0375 19.2656C56.1197 19.4109 56.1883 19.5635 56.2641 19.7116C56.3851 19.95 56.5097 20.1866 56.6289 20.4259C56.6994 20.5685 56.7671 20.7139 56.8285 20.8611C56.9088 21.0552 56.9739 21.2539 57.0867 21.4372C57.1544 21.5464 57.1815 21.6837 57.2438 21.8056C57.3287 21.9717 57.335 22.1812 57.4307 22.3383C57.5355 22.5108 57.5138 22.7302 57.6628 22.881C57.6926 22.9108 57.6971 22.9704 57.7025 23.0182C57.7161 23.1302 57.7161 23.2404 57.8145 23.3289C57.8524 23.3632 57.8362 23.4535 57.8551 23.5149C57.8777 23.5898 57.9102 23.6611 57.94 23.7334C57.949 23.7551 57.9743 23.774 57.9761 23.7957C57.9897 23.9754 58.0565 24.1352 58.1233 24.3013C58.1847 24.4521 58.1847 24.6192 58.2588 24.7817C58.368 25.0237 58.3725 25.3099 58.4448 25.5718C58.5152 25.8273 58.5522 26.0928 58.6245 26.342C58.6813 26.5398 58.7102 26.733 58.7364 26.9326C58.7482 27.0183 58.7807 27.1023 58.8059 27.1863C58.8195 27.2332 58.8484 27.2775 58.8511 27.3244C58.8692 27.6405 58.9504 27.9493 58.9865 28.2599C59.0813 29.0906 59.1771 29.9213 59.1933 30.762C59.2051 31.3534 59.289 31.9449 59.2565 32.5399H59.2547Z" fill="#01953F"/>
<path d="M44.383 34.8947C44.3153 35.1764 44.1248 35.413 43.8611 35.5863C43.685 35.7019 43.5063 35.7308 43.3121 35.7398C43.1821 35.7453 43.0512 35.7489 42.9211 35.7489C35.7029 35.7489 28.4856 35.7489 21.2673 35.7489C21.1283 35.7489 20.9892 35.7317 20.852 35.7398C20.5332 35.7588 20.3283 35.5674 20.1107 35.3778C19.8235 35.1276 19.81 34.8008 19.8091 34.4604C19.8064 34.0333 20.0195 33.7506 20.3554 33.5141C20.47 33.4337 20.5802 33.4048 20.7039 33.3804C20.9576 33.3299 20.9983 33.2793 20.9992 33.0247C20.9992 32.2906 20.9883 31.5564 21.0046 30.8223C21.0145 30.3582 21.2502 30.0214 21.6493 29.774C21.9635 29.5799 22.3021 29.597 22.61 29.6774C22.9116 29.756 23.1626 29.9582 23.3252 30.2761C23.4534 30.5271 23.4507 30.77 23.4525 31.0237C23.457 31.6684 23.4543 32.3122 23.4543 32.9569V33.2305C23.6828 33.2983 26.323 33.3344 26.9533 33.2856C27.0309 33.2793 27.1077 33.2522 27.2007 33.2314V32.9226C27.2007 31.4869 27.2007 30.0521 27.2007 28.6164C27.2007 28.4936 27.2007 28.3717 27.2052 28.2489C27.2187 27.829 27.4743 27.5013 27.8472 27.2945C28.1533 27.1238 28.4639 27.1473 28.7646 27.2042C29.0111 27.2512 29.2242 27.4218 29.3777 27.6385C29.5917 27.9401 29.6648 28.2742 29.6612 28.6462C29.6486 30.0819 29.6558 31.5167 29.6558 32.9524V33.2621C29.7587 33.2721 29.8373 33.2865 29.915 33.2865C30.9588 33.2883 32.0026 33.2874 33.0473 33.2865C33.088 33.2865 33.1286 33.2847 33.1692 33.282C33.2586 33.2766 33.2992 33.226 33.3001 33.1384C33.3001 33.0815 33.3019 33.0247 33.3019 32.9678C33.3019 32.3231 33.2983 31.6793 33.3056 31.0345C33.3074 30.9081 33.3507 30.7826 33.3769 30.6571C33.385 30.6174 33.4112 30.5795 33.4094 30.5415C33.3968 30.2697 33.5855 30.1063 33.7489 29.9411C34.0839 29.6034 34.5173 29.5718 34.9408 29.672C35.209 29.7352 35.4221 29.9347 35.5964 30.1731C35.7878 30.4341 35.7697 30.7266 35.7788 31.0102C35.7977 31.6296 35.7851 32.2499 35.7851 32.8693C35.7851 32.9344 35.7824 33.0003 35.7878 33.0653C35.8004 33.2197 35.8447 33.2667 35.9964 33.2847C36.0523 33.291 36.1101 33.2883 36.167 33.2883C37.1702 33.2883 38.1734 33.2883 39.1766 33.2883C39.2723 33.2883 39.368 33.2784 39.4989 33.2712V32.9696C39.4989 31.477 39.5089 29.9844 39.4917 28.4918C39.4872 28.1189 39.6181 27.8074 39.8312 27.5428C39.9902 27.3442 40.2294 27.1961 40.5121 27.1816C40.6258 27.1762 40.7405 27.1681 40.8543 27.1762C41.3058 27.2096 41.6146 27.4236 41.8322 27.839C41.9441 28.053 41.9514 28.2516 41.9523 28.4629C41.9577 29.9555 41.955 31.4481 41.955 32.9407V33.2504C42.0588 33.2648 42.1446 33.2847 42.2313 33.2874C42.4191 33.2928 42.6078 33.3037 42.7938 33.2865C43.1017 33.2567 43.3916 33.3389 43.6805 33.4156C43.8656 33.4644 43.9993 33.6107 44.1293 33.7488C44.4426 34.0811 44.4796 34.492 44.383 34.8965V34.8947Z" fill="#01953F"/>
<path d="M43.2173 22.2552C43.2164 22.4023 43.1713 22.5613 43.1035 22.6931C43.0205 22.8547 42.913 23.0173 42.7794 23.1374C42.5554 23.3378 42.2755 23.457 42.0019 23.5825C41.7771 23.6855 41.5613 23.8064 41.341 23.9193C41.1992 23.9925 41.0583 24.0665 40.9166 24.1396C40.7613 24.2191 40.6069 24.2995 40.4497 24.3753C40.3062 24.4448 40.159 24.5062 40.0163 24.5776C39.7536 24.7085 39.4953 24.8467 39.2326 24.9767C38.9969 25.0923 38.7558 25.1961 38.521 25.3126C38.2727 25.4372 38.0307 25.5762 37.7815 25.699C37.5323 25.8218 37.2759 25.9266 37.0266 26.0503C36.7937 26.1659 36.5688 26.2968 36.3377 26.416C36.2031 26.4855 36.065 26.5478 35.9286 26.6119C35.7634 26.6896 35.6 26.77 35.432 26.8422C35.3661 26.8702 35.293 26.881 35.2216 26.8946C35.0465 26.9271 34.8704 26.9569 34.6943 26.9867C34.6699 26.9912 34.6419 27.0029 34.6221 26.9948C34.3503 26.8855 34.0514 26.9216 33.7715 26.8178C33.5132 26.7221 33.2839 26.5776 33.0545 26.4449C32.7746 26.2833 32.4947 26.1108 32.222 25.9302C32.0495 25.8155 31.8599 25.7108 31.6766 25.6024C31.4617 25.476 31.2477 25.3487 31.0319 25.2241C30.8965 25.1464 30.7547 25.0805 30.6229 24.9974C30.4387 24.8819 30.2716 24.7374 30.0793 24.6408C29.8888 24.5451 29.7181 24.4232 29.5384 24.3139C29.3362 24.192 29.1276 24.0809 28.9253 23.9599C28.8106 23.8913 28.7086 23.8001 28.5894 23.7432C28.4702 23.6864 28.3384 23.6827 28.2165 23.7586C28.0088 23.8877 27.7966 24.0096 27.5935 24.1451C27.3081 24.3347 26.9975 24.4801 26.7149 24.6778C26.5361 24.8033 26.323 24.9008 26.1289 25.0164C25.8408 25.1862 25.5654 25.3767 25.2801 25.5501C25.1537 25.6268 25.0155 25.6819 24.8837 25.7505C24.843 25.7722 24.8096 25.8065 24.7699 25.83C24.5713 25.9483 24.3717 26.0656 24.1721 26.183C24.0918 26.23 24.0105 26.276 23.9311 26.3257C23.6529 26.5009 23.3821 26.6887 23.0958 26.8503C22.8899 26.9668 22.6696 27.067 22.4448 27.1411C22.2949 27.1898 22.1233 27.1998 21.9716 27.1068C21.9509 27.0941 21.9274 27.0806 21.9048 27.0788C21.5725 27.049 21.3585 26.816 21.1987 26.5776C21.075 26.3934 20.9332 26.1659 20.9946 25.8968C21.0624 25.458 21.1924 25.0616 21.6484 24.8476C21.8416 24.7564 22.0069 24.6047 22.1884 24.4864C22.2931 24.4187 22.4069 24.3645 22.5143 24.3004C22.7364 24.1676 22.955 24.0277 23.1798 23.8976C23.3839 23.7794 23.5988 23.6782 23.8001 23.5563C23.987 23.4435 24.1505 23.2863 24.3455 23.1951C24.555 23.0976 24.7401 22.9667 24.937 22.8511C25.1374 22.7328 25.337 22.6118 25.5383 22.4954C25.6801 22.4132 25.8282 22.3409 25.9672 22.2534C26.1514 22.1378 26.3266 22.0078 26.5117 21.894C26.7122 21.7712 26.9162 21.6547 27.1239 21.5445C27.291 21.4551 27.4652 21.3793 27.6368 21.2989C27.6729 21.2827 27.7126 21.27 27.7515 21.2646C28.1885 21.2077 28.6282 21.1825 29.0599 21.2728C29.2278 21.3071 29.4066 21.3703 29.552 21.4904C29.6468 21.5689 29.7723 21.5933 29.8797 21.6601C30.017 21.7459 30.1569 21.8281 30.2888 21.9256C30.3881 21.9987 30.5199 22.006 30.6147 22.108C30.6906 22.1883 30.8215 22.2154 30.9217 22.2768C31.2071 22.452 31.487 22.6371 31.7732 22.8087C32.0541 22.9766 32.3448 23.1292 32.6256 23.299C32.9055 23.4678 33.1755 23.6529 33.4554 23.8218C33.6577 23.9437 33.8708 24.0493 34.0776 24.1649C34.1805 24.2218 34.2898 24.2724 34.3801 24.3464C34.567 24.499 34.7331 24.4674 34.9291 24.3527C35.162 24.2164 35.4167 24.118 35.6587 23.9961C35.8925 23.8787 36.1201 23.7505 36.3521 23.6295C36.4641 23.5708 36.5761 23.5139 36.6907 23.4615C36.9327 23.3505 37.1801 23.2502 37.4176 23.131C37.6542 23.0118 37.8781 22.8692 38.112 22.7473C38.251 22.6741 38.4018 22.6218 38.5463 22.5577C38.6619 22.5062 38.7793 22.4583 38.8903 22.3987C39.1251 22.2732 39.3545 22.1369 39.591 22.015C39.731 21.9427 39.8836 21.8958 40.0245 21.8254C40.1572 21.7594 40.2809 21.6764 40.41 21.605C40.5211 21.5445 40.6339 21.4877 40.7486 21.4344C41.0665 21.2872 41.3789 21.1238 41.7076 21.0073C41.9035 20.9378 42.1202 20.954 42.3288 21.0398C42.5419 21.1274 42.7478 21.2195 42.8931 21.4028C42.9898 21.5256 43.0981 21.6403 43.1198 21.8109C43.1388 21.9608 43.2182 22.1062 43.2173 22.2534V22.2552Z" fill="#01953F"/>
</svg>
